<svg xmlns="http://www.w3.org/2000/svg" xmlns:xlink="http://www.w3.org/1999/xlink" viewBox="0 0 1141.58 1297.71"><defs><style>.cls-1,.cls-18,.cls-22,.cls-26,.cls-34,.cls-36,.cls-39,.cls-42,.cls-5{fill:none;}.cls-2{clip-path:url(#clip-path);}.cls-3{opacity:0.57;}.cls-4{fill:#66a6ff;}.cls-10,.cls-11,.cls-12,.cls-13,.cls-14,.cls-15,.cls-16,.cls-17,.cls-19,.cls-20,.cls-21,.cls-23,.cls-24,.cls-25,.cls-27,.cls-28,.cls-29,.cls-30,.cls-31,.cls-32,.cls-33,.cls-35,.cls-37,.cls-38,.cls-4,.cls-40,.cls-41,.cls-7,.cls-8,.cls-9{fill-rule:evenodd;}.cls-5{stroke:#532d9b;stroke-width:4px;}.cls-18,.cls-22,.cls-26,.cls-29,.cls-34,.cls-36,.cls-39,.cls-42,.cls-5{stroke-linecap:round;stroke-linejoin:round;}.cls-6{clip-path:url(#clip-path-2);}.cls-7{fill:#b9e7ff;}.cls-8{fill:#8bd8ff;}.cls-9{fill:#0035ac;}.cls-10{fill:#0045d6;}.cls-11{fill:#006cff;}.cls-12{fill:#ff3790;}.cls-13{fill:#d21f9e;}.cls-14{fill:#003cbe;}.cls-15{fill:#00a4ed;}.cls-16{fill:#00c8ec;}.cls-17{fill:#0df;}.cls-18{stroke:#00c8ec;}.cls-18,.cls-22,.cls-26,.cls-29,.cls-34,.cls-36,.cls-39,.cls-42{stroke-width:2px;}.cls-19{fill:#ffd4a4;}.cls-20{fill:#ffccba;}.cls-21{fill:#ffbaa0;}.cls-22{stroke:#0093ed;}.cls-23{fill:#ffe7c7;}.cls-24{fill:#ffa398;}.cls-25{fill:#94786d;}.cls-26{stroke:#ff3790;}.cls-27{fill:#ddf7ff;}.cls-28{fill:#cfedfd;}.cls-29{fill:#fff;stroke:#006cff;}.cls-30{fill:#ffb998;}.cls-31{fill:#ffac89;}.cls-32{fill:#addef8;}.cls-33{fill:#0053f1;}.cls-34{stroke:#0045d6;}.cls-35{fill:#ff9487;}.cls-36{stroke:#addef8;}.cls-37{fill:#f99b78;}.cls-38{fill:#e08a6a;}.cls-39{stroke:#d21f9e;}.cls-40{fill:#ff5b80;}.cls-41{fill:#132a99;}.cls-42{stroke:#891968;}</style><clipPath id="clip-path" transform="translate(-37.39 -6.37)"><rect class="cls-1" width="1200" height="800"/></clipPath><clipPath id="clip-path-2" transform="translate(-37.39 -6.37)"><circle class="cls-1" cx="584.72" cy="559.67" r="454.5"/></clipPath></defs><title>doctores</title><g id="Capa_2" data-name="Capa 2"><g id="b759170a-51c3-4e2f-999d-77dec9fd6d11"><rect class="cls-1" width="1140.56" height="787.26"/><g class="cls-2"><g class="cls-3"><path class="cls-4" d="M130.23,559.67c0-251,203.49-454.5,454.5-454.5s454.5,203.49,454.5,454.5-203.48,454.5-454.49,454.5S130.23,810.69,130.23,559.67Z" transform="translate(-37.39 -6.37)"/><path class="cls-5" d="M462.14,125V986.42" transform="translate(-37.39 -6.37)"/><path class="cls-5" d="M708.68,125V986.42" transform="translate(-37.39 -6.37)"/><path class="cls-5" d="M131.38,520.6h907.15" transform="translate(-37.39 -6.37)"/><g class="cls-6"><path class="cls-7" d="M751.82,1193s-12.65-93.23-48.9-141.83-55.28-60.24-36.36-90.65,16-37.74,4.66-65.31-36.1-48.44-5-77.1,7.82-23-2.06-48.48,5.16-29.15,4.59-44.42,19.28-11.78,23.92,17.86,5.88,13.85,39.78,47.76,21,68.86,21.73,100.14,53.08,68.06,44.53,81.33c-26,40.39,22.93,69.12,11.15,104.28S751.82,1193,751.82,1193Z" transform="translate(-37.39 -6.37)"/><path class="cls-8" d="M678.4,717.19c4.56,13.54,8.37,30.92-.17,38.19-14.46,12.32,21,33.37,26.05,59.09s-11.64,38.44,1.21,55.9,16.38,71,13.69,97.41,11.18,51.87,28.41,82.78S751.81,1193,751.81,1193s46.31-81.27,58.09-116.43-37.21-63.88-11.17-104.27c8.55-13.26-43.76-50.06-44.49-81.34s12.16-66.22-21.74-100.13-35.14-18.11-39.78-47.76C690.33,727.85,684,719.63,678.4,717.19Z" transform="translate(-37.39 -6.37)"/><path class="cls-9" d="M876.29,1014.17s-37.41-103.69-27.6-162.92,22.38-75.24-12.59-105-36-38.28-39.56-70.27,9.75-59-36.35-84.78-20.06-23.71-23.92-53.12-20.7-30.83-28.31-47.54-25.36-9.44-14.07,23.63,1.61,16.1-13.74,58.94,16.11,78.62,32.13,112.79-16,83.37-.47,96.31c47.35,39.39,14.34,79.25,44.8,115.44S876.29,1014.17,876.29,1014.17Z" transform="translate(-37.39 -6.37)"/><path class="cls-10" d="M694.18,483.49c2.74,15.53,8.28,35.11,20.61,41.53,20.88,10.88-2.93,40,5.88,68.87s32.08,39.8,28.72,61.05S771.21,735.08,788,763.36s16.71,58.41,16.23,95.07,72.06,155.75,72.06,155.75S787,933.82,756.58,897.63s2.58-76-44.77-115.44c-15.55-12.94,16.45-62.14.43-96.31s-47.46-69.95-32.12-112.79,25-25.87,13.75-58.94C688.09,497.18,690,487.12,694.18,483.49Z" transform="translate(-37.39 -6.37)"/><path class="cls-11" d="M497.41,1067s9.05-93.65,43.41-143.61,52.92-62.33,32.85-92-17.42-37.1-7.17-65.09,34.21-49.79,2-77.23-8.7-22.73.19-48.52-6.28-28.94-6.3-44.21-19.72-11-23.22,18.77-5.34,14.07-37.91,49.25S482.93,734,483.41,765.28,433,835.34,442,848.26c27.57,39.36-20.25,70-7.13,104.63S497.41,1067,497.41,1067Z" transform="translate(-37.39 -6.37)"/><path class="cls-10" d="M552.48,588.73c-4,13.7-7.17,31.22,1.64,38.15,14.92,11.76-19.74,34.15-23.76,60s13.12,38,.94,55.91-13.63,71.57-9.93,97.87-9.18,52.26-25.21,83.81S497.43,1067,497.43,1067,448,987.56,434.9,952.88s34.73-65.27,7.15-104.62c-9.05-12.92,41.81-51.7,41.33-83s-14.7-65.71,17.87-100.9,34.42-19.45,37.92-49.25C541,599.84,547,591.38,552.48,588.73Z" transform="translate(-37.39 -6.37)"/><path class="cls-12" d="M298.18,1054s37.41-103.69,27.6-162.93-22.38-75.24,12.59-105,36-38.28,39.57-70.27-9.75-59,36.35-84.78,20.06-23.71,23.91-53.12,20.71-30.83,28.31-47.54,25.36-9.44,14.07,23.63-1.6,16.1,13.74,58.94-16.11,78.62-32.13,112.79,16,83.37.47,96.31c-47.35,39.39-14.34,79.25-44.8,115.44S298.18,1054,298.18,1054Z" transform="translate(-37.39 -6.37)"/><path class="cls-13" d="M480.29,523.3c-2.74,15.53-8.28,35.11-20.61,41.53-20.88,10.88,2.93,40-5.89,68.87s-32.08,39.8-28.72,61.05-21.82,80.13-38.61,108.42-16.71,58.41-16.23,95.07S298.17,1054,298.17,1054s89.26-80.35,119.71-116.55-2.58-76,44.77-115.44c15.55-12.94-16.45-62.14-.43-96.31s47.46-69.94,32.12-112.79S469.31,587,480.6,554C486.38,537,484.5,526.93,480.29,523.3Z" transform="translate(-37.39 -6.37)"/></g><path class="cls-10" d="M293,902.12S249,874.19,182.42,837,71.5,725.13,76.73,662.22,64.65,594.52,54.86,540.33s8.26-58.52,51.17-5.56,53.11,23.75,80.27,63.38-16.56,57.68,14.49,77.6,47.6-15.69,71.38,66.33S293,902.12,293,902.12Z" transform="translate(-37.39 -6.37)"/><path class="cls-14" d="M60.66,497.35a7.18,7.18,0,0,0-4.25,2.47c18.62,39.7,65.87,97.52,71,141.44S130.5,714,167.1,741.35,293,902.12,293,902.12s2.91-78-20.87-160-40.33-46.41-71.37-66.33,12.65-38-14.52-77.63S149,587.75,106,534.79C84.58,508.31,69.32,496.11,60.66,497.35Z" transform="translate(-37.39 -6.37)"/><path class="cls-15" d="M906.91,870s41.54-24.88,104-57.5,107.78-104,107.82-167.12,15.91-66.7,28.76-120.07-3-58.91-45.43-9-49.36,20.09-76.67,57.78,10.49,58.64-18.82,76.4-41.47-18.86-68.93,61.32S906.91,870,906.91,870Z" transform="translate(-37.39 -6.37)"/><path class="cls-16" d="M1145.5,482a6.35,6.35,0,0,1,3.62,2.75c-19.67,38.33-66.34,92.8-74.2,136.25s-8.26,72.27-43.11,97.12S906.9,870,906.9,870s3.26-78,30.72-158.16,39.62-43.56,68.93-61.33-8.48-38.75,18.84-76.43,34.22-7.83,76.65-57.75C1123.25,491.36,1137.84,480.23,1145.5,482Z" transform="translate(-37.39 -6.37)"/><path class="cls-17" d="M317.08,902.12s-39-121.39-87.76-174.05-70.36-61.6-61-109.42S172.78,562,154,528.78s-48.57-52.5-27-102.33.86-33.92-15.94-64.73-3.45-41.22-8.4-61.62,15.09-22.8,28.08,15.57,9.63,16.6,51.9,50.28,40,85.48,49.69,127.46,70.51,72.94,66.13,93.91c-13.33,63.84,41.9,85.15,40.74,136.83S317.08,902.12,317.08,902.12Z" transform="translate(-37.39 -6.37)"/><path class="cls-16" d="M109.57,285.86c8.27,16.65,16.93,38.76,10.84,51.63C110.1,359.29,150.2,375,162.42,408S162.33,464,179.69,483s36.16,90,41.2,126.65,25.67,66,51.1,101.63,45.08,190.82,45.08,190.82,21-126.3,22.14-178-54.09-73-40.76-136.81c4.38-21-56.38-52-66.1-93.93s-7.42-93.78-49.7-127.45-38.92-11.9-51.9-50.27C124.09,296,115.62,287.16,109.57,285.86Z" transform="translate(-37.39 -6.37)"/><path class="cls-10" d="M937.62,833.62s33-123.14,79.15-178.13,67.27-65,55.57-112.27-7.21-56.39,9.94-90.46,46-54.81,22-103.53-2.52-33.83,12.76-65.43,1.43-41.34,5.38-62-16.19-22-27.29,16.93-8.81,17.05-49.39,52.75-35.75,87.33-43.4,129.73-66.86,76.3-61.46,97c16.43,63.12-37.7,87.09-34,138.66S937.62,833.62,937.62,833.62Z" transform="translate(-37.39 -6.37)"/><path class="cls-11" d="M1114.78,208c-7.45,17-15,39.54-8.31,52.1,11.37,21.28-27.91,38.95-38.51,72.45s2.82,56-13.58,75.81-31.72,91.68-35,128.51S997,604,973.34,640.82s-35.71,192.79-35.71,192.79-27.12-125.12-30.81-176.69,50.46-75.52,34-138.64c-5.4-20.73,53.78-54.65,61.43-97.05s2.83-94,43.41-129.73,38.29-13.79,49.39-52.75C1100.78,218.78,1108.8,209.55,1114.78,208Z" transform="translate(-37.39 -6.37)"/><path class="cls-12" d="M1179,597.4s-38.92-16.13-52.18,6.9c-9.29,16.13-15.25,23.54-21.17,28.28,0,0,14.85,4.82,34.61-15.7S1179,597.4,1179,597.4Z" transform="translate(-37.39 -6.37)"/><path class="cls-8" d="M144.47,623.69s-41.7-6-48.86,19.59c-5,17.93-9,26.58-13.52,32.64,0,0,15.58,1,29.65-23.77S144.47,623.69,144.47,623.69Z" transform="translate(-37.39 -6.37)"/><path class="cls-12" d="M1068.93,714.57s-40-76.72,7.76-128.31c33.44-36.14,40.15-60,38.79-95.25,0,0,19,51-22.5,115.52S1068.93,714.57,1068.93,714.57Z" transform="translate(-37.39 -6.37)"/><path class="cls-8" d="M58.67,704.76S27.27,639.84,73.2,598.48c32.18-29,39.62-48.55,40.47-77.88,0,0,14,42.9-27,95.21S58.67,704.76,58.67,704.76Z" transform="translate(-37.39 -6.37)"/></g><path class="cls-17" d="M467.79,344.44s-46.7-48.22-22.89-105.54,11.67-74.45-22.16-97.9c0,0,2.95-8.4-21.14-8.14s-82.3,12.6-90.15,59S322.28,247.6,291.69,258,246,273.92,257.05,303.88s-6.43,21.58-22.46,29.7c-24.5,12.42-14.07,24.49-6.5,40.38s7.85,11.2-15.7,37-29.77,60.71,24.36,75.56,149.93-21.11,149.93-21.11Z" transform="translate(-37.39 -6.37)"/><path class="cls-18" d="M422.74,141s-48.58-1.56-77.65,19.58c-27.29,19.85-23.06,33.57-18.36,71.64s-19.18,29.94-44.39,44.45c-28.14,16.2,10.47,27.36-2.94,46.64s-45.12,21.07-33.74,45.36,25.73,28.82,5.24,45.21-50.68,27.37-33.4,49,38.84,24.69,38.84,24.69" transform="translate(-37.39 -6.37)"/><path class="cls-18" d="M432,149.3s-70.82,3.08-79.09,35.41,12.15,72.67-11.38,82.75-55.08,20.95-28.7,38.79,22,40.86-11.38,48.88-25.34,26.12-3.62,41.63-14.37,24.51-35.58,39,18,43.1,49.52,47.72" transform="translate(-37.39 -6.37)"/><path class="cls-18" d="M368.43,258.51s6.44,13.94-15.84,21.65-21.4,20,6.2,33.59c23.43,11.5,40.58,29.24,3,49S319,379.19,354.14,408.6s-9.84,29.86-23.63,44.18S359.28,469,364.29,472" transform="translate(-37.39 -6.37)"/><path class="cls-11" d="M574.56,328.86s-57.79-6.24-97.25-5.35-61.24-20.75-98.8-20.23-53.67,17-53.67,17l21,27.88s77.59,20.18,124.53,49.74,67.55,70.61,67.55,70.61Z" transform="translate(-37.39 -6.37)"/><path class="cls-15" d="M484,534.36s-70.35,16.06-74-51.56l54.06-8.67Z" transform="translate(-37.39 -6.37)"/><path class="cls-19" d="M672.57,216.34l-15.51,75.84-35.22,22.47-13-121.59Z" transform="translate(-37.39 -6.37)"/><path class="cls-20" d="M698.15,1208.24s1.94,38.12,12.87,50.65,31.66,35.46,21.3,39.31c-16.76,6.23-47.4-13.36-56.34-21.8s-9.24-52.35-11-61S698.15,1208.24,698.15,1208.24Z" transform="translate(-37.39 -6.37)"/><path class="cls-21" d="M698.17,1208.25a221.49,221.49,0,0,0,3.12,24.23,56.63,56.63,0,0,1-34.52,2.82c-.61-7.83-1.25-17-1.82-19.83C663.19,1206.88,698.17,1208.25,698.17,1208.25Z" transform="translate(-37.39 -6.37)"/><path class="cls-16" d="M668.2,1249.56c5.58,1.34,7.28,4.82,17.24,10.37,11.51,6.42,25.6-1,25.6-1,10.85,12.44,31.66,35.48,21.3,39.33-16.76,6.23-47.43-13.4-56.37-21.84C672,1272.6,669.43,1262.91,668.2,1249.56Z" transform="translate(-37.39 -6.37)"/><path class="cls-20" d="M553.81,1208.93s.58,38.17-9.5,51.39-29.25,37.47-18.66,40.63c17.14,5.11,46.42-16.46,54.78-25.47s5.77-52.85,6.95-61.54S553.81,1208.93,553.81,1208.93Z" transform="translate(-37.39 -6.37)"/><path class="cls-21" d="M553.79,1209a224.64,224.64,0,0,1-1.46,25.22c15.18,8.33,23.75,6.63,34.58-.31.09-7.85.12-17.08.51-19.91C588.6,1205.26,553.79,1209,553.79,1209Z" transform="translate(-37.39 -6.37)"/><path class="cls-16" d="M586.43,1248.18c-5.48,1.71-6.94,5.29-16.52,11.49-11.06,7.16-25.61.66-25.61.66-10,13.12-29.25,37.48-18.66,40.64,17.14,5.11,46.44-16.5,54.8-25.51C584.19,1271.42,586.08,1261.59,586.43,1248.18Z" transform="translate(-37.39 -6.37)"/><path class="cls-16" d="M719.15,685.76l-14.06,534.59s-21.29,21.41-46.17,2.88L624.76,702.44l-32.5,519.39s-25,19.43-43.43-3.48L536.26,680.44Z" transform="translate(-37.39 -6.37)"/><path class="cls-15" d="M719.15,685.76l-182.89-5.32,0,2.1.11,5.16L538,754.15c14.5,4,31.86,6.32,52.67,8.57,7.66,40.78,16.53,91.83,21.82,135.62l12.18-194.16,4.19,60.44c25.79,0,56.85-1,88.44-7.67l1.57-61.31Z" transform="translate(-37.39 -6.37)"/><path class="cls-22" d="M556.64,1215.8,541,673.37" transform="translate(-37.39 -6.37)"/><path class="cls-22" d="M700,1218.35s5.07-513.13,5.07-538.79" transform="translate(-37.39 -6.37)"/><path class="cls-20" d="M500,429.18c-.22-63.87,69.44-97.61,69.44-97.61,41.16-15.94,18-72.35,18-72.35l57,7.68s-16.36,39.37,18.18,59.61c26.41,15.47,81.31,18.31,86.37,81.22l-29.88,37-6.68,237.48S618.48,683.53,542.48,657l-1.65-196.51Z" transform="translate(-37.39 -6.37)"/><path class="cls-21" d="M587.51,259.23,644.6,267s-5.87,18.8-1.59,36.13c-9.71,9.57-30.59,24.27-52.82,9.15C600,289.75,587.51,259.23,587.51,259.23Z" transform="translate(-37.39 -6.37)"/><path class="cls-21" d="M662.76,326.53s-33.94,63.6-55.15,43.29c0,0-27.28-24.21-33-40.68L560,351.1,577,420.39l38.26,19.3,63.24-33.87Z" transform="translate(-37.39 -6.37)"/><path class="cls-23" d="M613.25,125.14c36.14,1.67,48,29.32,48,29.32,39.4,11,33,76.34,28.47,113.27s-40.36,49.94-52.48,51.68-5.41-2.89-5.41-2.89c20.71-17.32,18.44-73,18.44-73s-2,4.45-5.15,10.77l-16.62-36.77s-38.27,26.38-34.09,52.16c3.2,19.73-1.55,40.7-7.23,45.93-27.95,10.79-47.91,1.15-52.54-2-6.36-4.36,5.23-4.46,7.77-18.17,3.3-17.75-1.45-51.71-6.54-105.61-3.37-35.61,32.7-55.7,32.7-55.7C586.45,126.9,601.2,124.58,613.25,125.14Z" transform="translate(-37.39 -6.37)"/><path class="cls-20" d="M639.62,173.8l6.65,52.14s11.5-7.41,15.21,3.66-5.63,17.83-11.23,15.88c0,0-.44,33.73-30.55,40.29s-50-34.49-51.53-51.44-10.67-37.52-10.67-37.52l19.86-29.74Z" transform="translate(-37.39 -6.37)"/><path class="cls-24" d="M589,237a8.86,8.86,0,1,0-7.17,10.12A8.77,8.77,0,0,0,589,237Z" transform="translate(-37.39 -6.37)"/><path class="cls-24" d="M640.26,229.31a8.86,8.86,0,1,0-7.17,10.12A8.77,8.77,0,0,0,640.26,229.31Z" transform="translate(-37.39 -6.37)"/><path class="cls-21" d="M659.88,234.19c.22-3.67-1.9-6.79-4.73-7s-5.29,2.68-5.5,6.35,1.9,6.79,4.73,7S659.67,237.87,659.88,234.19Z" transform="translate(-37.39 -6.37)"/><path class="cls-23" d="M646.73,224.33s.71,13-2,14.22c0,0-18.48-45.16-19.62-56.13,0,0-43.45,30-63.3,33.77l-13.26-24.57L580,145.22l47.53,11.54,36.71,33Z" transform="translate(-37.39 -6.37)"/><path class="cls-25" d="M583.27,223.68a3,3,0,1,0-2.45,3.53A3,3,0,0,0,583.27,223.68Z" transform="translate(-37.39 -6.37)"/><path class="cls-25" d="M622.63,220.58a3,3,0,1,0-2.45,3.53A3,3,0,0,0,622.63,220.58Z" transform="translate(-37.39 -6.37)"/><path class="cls-25" d="M584.1,208.22s3.43,3.46-2.37,2.09-7.44.65-11,4.62c-2.9,3.19-4.75,1-3-2.72S576.53,200.43,584.1,208.22Z" transform="translate(-37.39 -6.37)"/><path class="cls-25" d="M609,211.34s-1.72,4.56,3,.93,7.05-2.46,12-.31c4,1.72,4.76-1,1.62-3.71S612.75,201.13,609,211.34Z" transform="translate(-37.39 -6.37)"/><path class="cls-26" d="M649.54,222.61,637,223" transform="translate(-37.39 -6.37)"/><path class="cls-27" d="M643.33,227.14s-41.39,22.4-75.14,7.18c0,0,2.77,60.27,51.51,51.44,0,0,25.48-3.16,29.6-29.64C649.3,256.13,633.22,250.46,643.33,227.14Z" transform="translate(-37.39 -6.37)"/><path class="cls-28" d="M640,242.61l.13.18A15.5,15.5,0,0,0,645.9,254c-1.68,2.44-6.21,5.62-20.13,6.68-23,1.75-6.56-3.26-6.56-3.26C635.66,252.74,640,242.61,640,242.61Z" transform="translate(-37.39 -6.37)"/><path class="cls-28" d="M572,254.2c3.54,2.49,10.21,6.13,21,6.08,0,0,17.14.29-5.42,5a67.51,67.51,0,0,1-10.25,1.29A67.2,67.2,0,0,1,572,254.2Z" transform="translate(-37.39 -6.37)"/><path class="cls-29" d="M649.54,222.61l-11.72,7.15" transform="translate(-37.39 -6.37)"/><path class="cls-29" d="M650.25,245.48s1.23,5.69-2.05,15.67" transform="translate(-37.39 -6.37)"/><path class="cls-26" d="M637,223c0-6.74-7.54-9.63-17.29-9.63s-18,2.89-18,9.63,1.94,14.37,17.66,14.48C634.38,237.55,637,229.69,637,223Z" transform="translate(-37.39 -6.37)"/><path class="cls-26" d="M592.83,224.07c0-6.74-7.54-9.63-17.29-9.63s-18,2.89-18,9.63,1.94,14.37,17.66,14.48C590.22,238.66,592.83,230.81,592.83,224.07Z" transform="translate(-37.39 -6.37)"/><path class="cls-26" d="M601.8,225.62a13.91,13.91,0,0,0-9,.15" transform="translate(-37.39 -6.37)"/><path class="cls-20" d="M829.3,480.46s31.15,38.44,22.86,47S740,621.2,726.76,634.5s-22.36,23.62-35.18,6-15.83-14.07-6.28-21.61-2,0-2.29-4.31,4.63-9.23,11.62-10.54,15.42.85,25-7.49,58.34-79.54,62.7-85.83L763.2,485.08Z" transform="translate(-37.39 -6.37)"/><path class="cls-11" d="M829.32,480.46s31.13,38.47,22.84,47c-6.18,6.36-65.24,55.15-100.51,85.18h-.05s-3.53-12-24.23-25.52c16.44-20.53,51.17-71,54.89-76.39l-17.37-23.37,1.61-2.52Z" transform="translate(-37.39 -6.37)"/><path class="cls-16" d="M662.76,326.53s-26.37,69.89-49.28,56.28-38.92-53.67-38.92-53.67-60.44,17.76-76.78,75.17c-6.76,23.75,40.1,64.19,40.1,64.19l-1,102.48-.47,85.16-.13,24.29s7.72,3.08,27.91,6.76c32.08,5.85,83.68,11.17,155-1.44h0l1-210.7,35.17,57s20.39-49.49,74-51.56c0,0-64.5-88.75-94.23-115.21S662.76,326.53,662.76,326.53Z" transform="translate(-37.39 -6.37)"/><path class="cls-15" d="M719.15,605.3l-.27,62.19a50.34,50.34,0,0,1-6.22-1.61c-32.51-11.92-33.24-41.76-33.24-41.76Z" transform="translate(-37.39 -6.37)"/><path class="cls-17" d="M719.59,596.58c4.28,11.45,18.92,27.34,18.92,27.34l-.05.27c-4,3.48-10.08,8.67-11.69,10.29-13.22,13.31-22.4,23.65-35.22,6.06s-15.82-14.06-6.27-21.6-2,0-2.25-4.34,4.59-9.19,11.58-10.51S710.06,604.92,719.59,596.58Z" transform="translate(-37.39 -6.37)"/><path class="cls-12" d="M631.79,417.58H597.54V533.68h34.26Z" transform="translate(-37.39 -6.37)"/><path class="cls-12" d="M673.76,495.8l.68-34.25-116.08-2.3-.68,34.25Z" transform="translate(-37.39 -6.37)"/><path class="cls-11" d="M779.75,899.73" transform="translate(-37.39 -6.37)"/><path class="cls-30" d="M318.91,1211.27s-1.88,38.78-13,51.54-32.11,36.16-21.56,40c17.07,6.29,48.18-13.71,57.24-22.31s9.26-53.28,11-62S318.91,1211.27,318.91,1211.27Z" transform="translate(-37.39 -6.37)"/><path class="cls-11" d="M348.66,1257.74c-11.72.09-6.83,5.74-22.52,20.88-18.5,17.85-31.41-1.67-31.68-2.07-9.24,11.43-17.43,23.62-10.09,26.33,17.07,6.29,48.18-13.75,57.25-22.35C345.18,1277.16,347.2,1267.85,348.66,1257.74Z" transform="translate(-37.39 -6.37)"/><path class="cls-31" d="M318.89,1211.28a225.4,225.4,0,0,1-3.11,24.65,57.67,57.67,0,0,0,35.11,2.78c.6-8,1.23-17.33,1.8-20.17C354.46,1209.79,318.89,1211.28,318.89,1211.28Z" transform="translate(-37.39 -6.37)"/><path class="cls-30" d="M477.38,1211.27s1.88,38.78,13,51.54,32.11,36.16,21.56,40c-17.06,6.29-48.18-13.71-57.25-22.31s-9.26-53.28-11-62S477.38,1211.27,477.38,1211.27Z" transform="translate(-37.39 -6.37)"/><path class="cls-11" d="M447.63,1257.74c11.72.09,6.83,5.74,22.52,20.88,18.5,17.85,31.41-1.67,31.68-2.07,9.24,11.43,17.43,23.62,10.09,26.33-17.07,6.29-48.18-13.75-57.25-22.35C451.11,1277.16,449.09,1267.85,447.63,1257.74Z" transform="translate(-37.39 -6.37)"/><path class="cls-31" d="M477.4,1211.28a225.37,225.37,0,0,0,3.11,24.65,57.67,57.67,0,0,1-35.11,2.78c-.6-8-1.23-17.33-1.8-20.17C441.83,1209.79,477.4,1211.28,477.4,1211.28Z" transform="translate(-37.39 -6.37)"/><path class="cls-28" d="M484.61,628.3l-179.87-1.13-53.6,120.39L228.21,911s114.19-100.63,309-21.21Z" transform="translate(-37.39 -6.37)"/><path class="cls-32" d="M441.84,628,288,664.82l5.45,211.1c52.73-18.82,135.79-30.12,243.76,13.9L484.58,628.29Z" transform="translate(-37.39 -6.37)"/><path class="cls-11" d="M307.5,638.27l4,393.5,2,195.21s24,9.63,41,.9l51.82-517.47,34.23,517.81s22.6,9.74,43.1-4.72l12.14-590.13Z" transform="translate(-37.39 -6.37)"/><path class="cls-33" d="M495.81,633.36,307.5,638.27,308,691l.44,42.7a375.16,375.16,0,0,0,93.45,20.61l4.42-43.94,2.94,44.6a289.14,289.14,0,0,0,57.25-2c7.59,23.75,16.25,50.09,25.24,76.82Z" transform="translate(-37.39 -6.37)"/><path class="cls-34" d="M318.89,1221.3l1.29-550.23" transform="translate(-37.39 -6.37)"/><path class="cls-34" d="M479.15,1222l6.9-556.89" transform="translate(-37.39 -6.37)"/><path class="cls-30" d="M525.2,407.79c.21-56.36-75.35-79.79-75.35-79.79-39.34-14.06-17.25-63.84-17.25-63.84l-54.53,6.78s16.81,43.33-19.74,53.8-75.38,15-80.21,70.47l28.57,32.68-2.37,240.82S419.49,679.86,486,655.88l-8.78-214.14Z" transform="translate(-37.39 -6.37)"/><path class="cls-31" d="M432.62,264.15,378,271s6.6,17,2.51,32.33c9.29,8.44,28.26,21,49.5,7.63C420.7,291.08,432.62,264.15,432.62,264.15Z" transform="translate(-37.39 -6.37)"/><path class="cls-30" d="M369.06,220.25l-.18,18s-12.86-5.33-14.55,6.41,8.86,16.82,14.11,13.86c0,0,6.55,33.68,37.87,34.78s43.82-43.58,42.24-60.82S452.43,193,452.43,193l-25.27-26.17Z" transform="translate(-37.39 -6.37)"/><path class="cls-35" d="M428.17,238.9a9,9,0,1,1,9,8.83A8.92,8.92,0,0,1,428.17,238.9Z" transform="translate(-37.39 -6.37)"/><path class="cls-35" d="M371.14,241.31a9,9,0,1,1,9,8.83A8.92,8.92,0,0,1,371.14,241.31Z" transform="translate(-37.39 -6.37)"/><path class="cls-11" d="M425.09,226.3a3.09,3.09,0,1,1,3.09,3.09A3.09,3.09,0,0,1,425.09,226.3Z" transform="translate(-37.39 -6.37)"/><path class="cls-11" d="M386.66,227a3.09,3.09,0,1,1,3.09,3.09A3.09,3.09,0,0,1,386.66,227Z" transform="translate(-37.39 -6.37)"/><path class="cls-17" d="M415,155.62s-59.85,53-56,65.56c0,0,61.71-1.28,86.05-22.43.24,3.87,2.34,24.26,3.51,33.73l7.22-42.13-7.64-7.49-.05.1c-3.32-8.45-8.15-20.28-10.48-21.87C434.25,158.82,415,155.62,415,155.62Z" transform="translate(-37.39 -6.37)"/><path class="cls-11" d="M422.92,207.65s-3.36,3.65,2.49,2,7.59.37,11.41,4.27c3.07,3.13,4.87.87,2.94-2.88S430.32,199.43,422.92,207.65Z" transform="translate(-37.39 -6.37)"/><path class="cls-11" d="M398.15,219.59s2.54,4.26-2.85,1.48-7.5-1.18-12,1.86c-3.64,2.44-4.94-.13-2.3-3.42S392.58,210,398.15,219.59Z" transform="translate(-37.39 -6.37)"/><path class="cls-27" d="M372,238.9s45.48,14.92,76.49-6.42c0,0,8.15,60.82-42.23,60.82,0,0-26.07,1.46-35-24.3C371.31,269,386.37,260.41,372,238.9Z" transform="translate(-37.39 -6.37)"/><path class="cls-28" d="M378.12,253.79l-.1.2a15.76,15.76,0,0,1-3.7,12.25c2.12,2.14,7.23,4.5,21.36,3,23.32-2.41,6-4.45,6-4.45C384.35,263.12,378.12,253.79,378.12,253.79Z" transform="translate(-37.39 -6.37)"/><path class="cls-28" d="M448.29,253.06c-3.09,3.14-9.11,8-19.9,9.89,0,0-17.1,3.4,6.33,4a68.78,68.78,0,0,0,10.5-.57A68.42,68.42,0,0,0,448.29,253.06Z" transform="translate(-37.39 -6.37)"/><path class="cls-29" d="M365,235.5l13,5" transform="translate(-37.39 -6.37)"/><path class="cls-29" d="M368.43,258.51s-.19,5.92,4.89,15.31" transform="translate(-37.39 -6.37)"/><path class="cls-31" d="M356.75,249c-.88-3.64.67-7.14,3.47-7.81s5.78,1.72,6.66,5.36-.67,7.14-3.47,7.81S357.63,252.59,356.75,249Z" transform="translate(-37.39 -6.37)"/><path class="cls-16" d="M422.74,141s43.17,32.91,22.28,57.74l3.77,36.48S484.1,170.89,422.74,141Z" transform="translate(-37.39 -6.37)"/><path class="cls-18" d="M364.16,230.79s-16.85-69.72,73.45-75.43" transform="translate(-37.39 -6.37)"/><path class="cls-18" d="M369.9,220.57s0-45.18,72-59.71" transform="translate(-37.39 -6.37)"/><path class="cls-30" d="M369.06,220.25l-.18,18s-12.86-5.33-14.55,6.41,8.86,16.82,14.11,13.86c0,0,6.55,33.68,37.87,34.78s43.82-43.58,42.24-60.82S452.43,193,452.43,193l-25.27-26.17Z" transform="translate(-37.39 -6.37)"/><path class="cls-35" d="M428.17,238.9a9,9,0,1,1,9,8.83A8.92,8.92,0,0,1,428.17,238.9Z" transform="translate(-37.39 -6.37)"/><path class="cls-35" d="M371.14,241.31a9,9,0,1,1,9,8.83A8.92,8.92,0,0,1,371.14,241.31Z" transform="translate(-37.39 -6.37)"/><path class="cls-11" d="M425.09,226.3a3.09,3.09,0,1,1,3.09,3.09A3.09,3.09,0,0,1,425.09,226.3Z" transform="translate(-37.39 -6.37)"/><path class="cls-11" d="M386.66,227a3.09,3.09,0,1,1,3.09,3.09A3.09,3.09,0,0,1,386.66,227Z" transform="translate(-37.39 -6.37)"/><path class="cls-17" d="M415,155.62s-59.85,53-56,65.56c0,0,61.71-1.28,86.05-22.43.24,3.87,2.34,24.26,3.51,33.73l7.22-42.13-7.64-7.49-.05.1c-3.32-8.45-8.15-20.28-10.48-21.87C434.25,158.82,415,155.62,415,155.62Z" transform="translate(-37.39 -6.37)"/><path class="cls-11" d="M422.92,207.65s-3.36,3.65,2.49,2,7.59.37,11.41,4.27c3.07,3.13,4.87.87,2.94-2.88S430.32,199.43,422.92,207.65Z" transform="translate(-37.39 -6.37)"/><path class="cls-11" d="M398.15,219.59s2.54,4.26-2.85,1.48-7.5-1.18-12,1.86c-3.64,2.44-4.94-.13-2.3-3.42S392.58,210,398.15,219.59Z" transform="translate(-37.39 -6.37)"/><path class="cls-27" d="M372,238.9s45.48,14.92,76.49-6.42c0,0,8.15,60.82-42.23,60.82,0,0-26.07,1.46-35-24.3C371.31,269,386.37,260.41,372,238.9Z" transform="translate(-37.39 -6.37)"/><path class="cls-28" d="M378.12,253.79l-.1.2a15.76,15.76,0,0,1-3.7,12.25c2.12,2.14,7.23,4.5,21.36,3,23.32-2.41,6-4.45,6-4.45C384.35,263.12,378.12,253.79,378.12,253.79Z" transform="translate(-37.39 -6.37)"/><path class="cls-28" d="M448.29,253.06c-3.09,3.14-9.11,8-19.9,9.89,0,0-17.1,3.4,6.33,4a68.78,68.78,0,0,0,10.5-.57A68.42,68.42,0,0,0,448.29,253.06Z" transform="translate(-37.39 -6.37)"/><path class="cls-29" d="M365,235.5l13,5" transform="translate(-37.39 -6.37)"/><path class="cls-29" d="M368.43,258.51s-.19,5.92,4.89,15.31" transform="translate(-37.39 -6.37)"/><path class="cls-31" d="M356.75,249c-.88-3.64.67-7.14,3.47-7.81s5.78,1.72,6.66,5.36-.67,7.14-3.47,7.81S357.63,252.59,356.75,249Z" transform="translate(-37.39 -6.37)"/><path class="cls-16" d="M422.74,141s43.17,32.91,22.28,57.74l3.77,36.48S484.1,170.89,422.74,141Z" transform="translate(-37.39 -6.37)"/><path class="cls-18" d="M364.16,230.79s-16.85-69.72,73.45-75.43" transform="translate(-37.39 -6.37)"/><path class="cls-18" d="M369.9,220.57s0-45.18,72-59.71" transform="translate(-37.39 -6.37)"/><path class="cls-17" d="M361.43,510.1" transform="translate(-37.39 -6.37)"/><path class="cls-31" d="M367.74,320.58s30,53.27,50.29,35.35c0,0,17.64-17.76,23.15-32.29l17.72,21.59-16.19,61.14-36.57,17-60.45-29.89Z" transform="translate(-37.39 -6.37)"/><path class="cls-11" d="M367.74,320.58a37,37,0,0,1-9.43,4.14c-36.55,10.48-75.37,15-80.2,70.5l28.57,32.66-2.34,240.82S419.5,689.05,486,665.07l-8.76-223.35,47.92-33.91c.21-56.36-75.35-79.82-75.35-79.82a39.54,39.54,0,0,1-8.67-4.36l-.11.05s-8.43,27.76-26.5,45.25c-13.91,13.47-46.73-48.31-46.73-48.31Z" transform="translate(-37.39 -6.37)"/><path class="cls-27" d="M305.76,522.72s.33,84.89-41.86,154.94-49.34,175.86-41.14,223.73c5.32,31.07,9.7-9,14.83-40.31,11.94-73,33.23-110.47,89.49-214.4C359.4,587,370,484,370,484Z" transform="translate(-37.39 -6.37)"/><path class="cls-27" d="M434.79,495.27s1.08,113.2,38.38,219.44,53.17,122.48,61.66,167.2c3.57,18.79,13.93,17.49,2.85-35.46s-46.31-278.67-38.5-323.35Z" transform="translate(-37.39 -6.37)"/><path class="cls-28" d="M367.14,505.35,305.7,523.78c0,1.64-.37,27-7.41,61.45,20.12-.94,42.41-8.41,56.21-14.88C360.83,544.83,364.76,521.58,367.14,505.35Z" transform="translate(-37.39 -6.37)"/><path class="cls-28" d="M435.4,510.15c.49,11.12,1.47,26.78,4,49.72,13.7,7.93,36.71,19.25,60.74,22-2.14-26.6-2.85-48-1-58.72l-16.57-7.2Z" transform="translate(-37.39 -6.37)"/><path class="cls-32" d="M332.7,388.1a11.54,11.54,0,1,1,11.54,11.54A11.54,11.54,0,0,1,332.7,388.1Z" transform="translate(-37.39 -6.37)"/><path class="cls-11" d="M338,388.1a6.27,6.27,0,1,1,6.27,6.27A6.27,6.27,0,0,1,338,388.1Z" transform="translate(-37.39 -6.37)"/><path class="cls-36" d="M332.16,439.42" transform="translate(-37.39 -6.37)"/><path class="cls-36" d="M345.68,526.37a177.66,177.66,0,0,1-5.83,60.11" transform="translate(-37.39 -6.37)"/><path class="cls-36" d="M453.18,523.55s-6.55,42.19-2.59,66.2" transform="translate(-37.39 -6.37)"/><path class="cls-16" d="M452.25,321c-.18,12.27-1,35.71-4,64.75,7.76,3.86,15.29,7.87,22.09,12.16,46.95,29.56,67.54,70.63,67.54,70.63l36.58-139.35-5.16-.78c-7.85-.82-55.6-5.7-92-4.87A104.84,104.84,0,0,1,452.25,321Z" transform="translate(-37.39 -6.37)"/><path class="cls-20" d="M324.83,320.27s12-11.36,29-14c0,0,13.25,6.19,10.8,14.29,0,0-10.7,6.16-14.73,14.5L329,342.81Z" transform="translate(-37.39 -6.37)"/><path class="cls-32" d="M541.2,395.64a11.54,11.54,0,1,1,11.54,11.54A11.54,11.54,0,0,1,541.2,395.64Z" transform="translate(-37.39 -6.37)"/><path class="cls-11" d="M546.47,395.64a6.27,6.27,0,1,1,6.27,6.27A6.27,6.27,0,0,1,546.47,395.64Z" transform="translate(-37.39 -6.37)"/><path class="cls-34" d="M552.74,395.64s-1.7-63.58,22.42-67.52" transform="translate(-37.39 -6.37)"/><path class="cls-26" d="M673.75,373.14s-17,0-19.29,27.71c-2.3,27.58-7.35,42.58,17.7,42.58" transform="translate(-37.39 -6.37)"/><path class="cls-26" d="M675.11,373.1s17,0,19.28,27.71c2.3,27.58,7.35,42.58-17.7,42.58" transform="translate(-37.39 -6.37)"/><path class="cls-34" d="M674.79,374.42s.28-47.44-11.87-48.59" transform="translate(-37.39 -6.37)"/><path class="cls-11" d="M671,440.82h3v5.12h-3Z" transform="translate(-37.39 -6.37)"/><path class="cls-11" d="M674.79,440.82h3v5.12h-3Z" transform="translate(-37.39 -6.37)"/><path class="cls-15" d="M537.85,471.6l-15.52-18.36s-30.13-38.89-.21-21.4S559.68,457.78,537,561.34h0Z" transform="translate(-37.39 -6.37)"/><path class="cls-27" d="M441.39,323.63C435,404,437,466.09,437,466.09c-3.88-.37-12.31-.16-20,.05-.86,0-1.39,0-2.24,0-8.41.26-15.7.6-15.7.6l-7.52,37.4c2.13,1.09,3.67,1.79,5.72,2.84,38.61,19.63,65.74,31.56,84.23,37.45,32.46,10.35,40,3.28,43.89-8.29,2.26-6.7.46-128.35.46-128.35,0-62.59-75.81-79.81-75.81-79.81A39.56,39.56,0,0,1,441.39,323.63Z" transform="translate(-37.39 -6.37)"/><path class="cls-28" d="M483.44,473s25.73,14.06,23.76,5.45-34-25.46-37.53-24.66l-2.52,7.37Z" transform="translate(-37.39 -6.37)"/><path class="cls-28" d="M471.82,456.57S481.52,408.14,486,410s14.43,66.15,14.43,66.15l-20.8-4.44Z" transform="translate(-37.39 -6.37)"/><path class="cls-36" d="M464.29,348.77s23.52,41.09,17.55,49.69c-3.67,5.28-34.58,6.91-30.69,15.25s31.66,13.4,13.67,29.43c0,0-16.64,15.53-13.35,37.43" transform="translate(-37.39 -6.37)"/><path class="cls-11" d="M459.29,412.62h23.53V418H459.29Z" transform="translate(-37.39 -6.37)"/><path class="cls-28" d="M458.35,451.21,437,461.95c0,.31,0,4.14,0,4.14-1.62-.15-5.53,0-8.34,0l-32.82,16.52-4.31,21.54c2.13,1.09,3.67,1.79,5.72,2.84,12,6.12,21.08,10.21,31,14.88,17.28-16.34,40.19-40.3,39.53-54.3Z" transform="translate(-37.39 -6.37)"/><path class="cls-30" d="M419.43,453.55s32.4-6.65,42.25-4.55S481.9,469.55,483.44,473c0,0-28.67-11.49-34.94-7.41s-33.27,27.28-33.27,27.28l-13.36-22.12Z" transform="translate(-37.39 -6.37)"/><path class="cls-17" d="M450.84,448.81c-4.09.3-8.66.9-13,1.53,0,0,5.55,4.67,8.23,17.17.57-.41,2-1.7,2.45-2,6.27-4.09,34.95,7.41,34.95,7.41-1.54-3.41-11.9-21.83-21.75-23.93A43.24,43.24,0,0,0,450.84,448.81Z" transform="translate(-37.39 -6.37)"/><path class="cls-27" d="M366.87,320.58a37,37,0,0,1-9.43,4.14c-36.55,10.48-75.36,15-80.2,70.5,0,0-21.43,151.11,6.49,155.38,5.43.83,12.77,0,20.88-1.69,33.6-7,85.43-33.17,119.35-63,0,0-14.8-17.82-4.53-32.39l-53,11.29S378.07,342.3,366.87,320.58Z" transform="translate(-37.39 -6.37)"/><path class="cls-28" d="M323.79,474.6s-39.9,10.83-35.66,3.33,22.66-38.43,29.12-33.12S323.79,474.6,323.79,474.6Z" transform="translate(-37.39 -6.37)"/><path class="cls-28" d="M319.36,433.18s-.5-28.61,3.17-24.6,13.9,19.19,13.9,19.19-6,5.34-6.15,13.23Z" transform="translate(-37.39 -6.37)"/><path class="cls-36" d="M333.23,351.76s-23.52,41.09-17.55,49.69c3.67,5.28,34.58,6.91,30.69,15.25S327.8,431.09,330.3,441" transform="translate(-37.39 -6.37)"/><path class="cls-30" d="M371.2,463.82s-11,1.28-20.27-11.7-16.2-16.58-17.21-15.22,5.9,8.4,5.31,10c0,0-11.87-16.35-26.16-18.86s-16.77.67-9.36,3,16.38,7.7,12.46,7.71-20.39-8.07-24.7-5.37c-3.92,2.46,14.91,6.23,21.44,11.82s-16.87-6-21.62-2.83,11.29,5.66,19,10.7-11.09-5-15.18-1,8.78,2.46,15.87,10.15,4.91,7.43,13,12.32Z" transform="translate(-37.39 -6.37)"/><path class="cls-17" d="M304.33,427.11c-6.38-.05-6.38,2.2-.82,4,7.41,2.37,16.4,7.68,12.48,7.69s-20.39-8.1-24.7-5.4c-3.92,2.46,14.9,6.24,21.43,11.83s-16.89-6-21.64-2.84,11.32,5.71,19,10.74-11.13-5-15.21-1,8.77,2.45,15.87,10.14,4.93,7.43,13,12.32L356,467.28a33.51,33.51,0,0,0,1.56-8.22,32.5,32.5,0,0,1-6.6-6.92c-9.24-13-16.22-16.57-17.23-15.21s5.87,8.39,5.29,10c0,0-11.82-16.36-26.12-18.87A54.23,54.23,0,0,0,304.33,427.11Z" transform="translate(-37.39 -6.37)"/><path class="cls-16" d="M324.83,320.27s-7.56,4.85-16.49,19.84-14.76,23.37-6.22,31.17,26.91,15.71,29,7.2,2.81-3.49,7.1-4.7,3.26-27.52,11.6-38.72C349.88,335.06,344.72,313.59,324.83,320.27Z" transform="translate(-37.39 -6.37)"/><path class="cls-32" d="M332.7,388.1a11.54,11.54,0,1,1,11.54,11.54A11.54,11.54,0,0,1,332.7,388.1Z" transform="translate(-37.39 -6.37)"/><path class="cls-11" d="M338,388.1a6.27,6.27,0,1,1,6.27,6.27A6.27,6.27,0,0,1,338,388.1Z" transform="translate(-37.39 -6.37)"/><path class="cls-34" d="M344.24,388.1s-1.7-63.58,22.42-67.52" transform="translate(-37.39 -6.37)"/><path class="cls-18" d="M451.73,370.23s-17,0-19.28,27.71c-2.3,27.58-7.35,42.58,17.7,42.58" transform="translate(-37.39 -6.37)"/><path class="cls-18" d="M453.09,370.19s17,0,19.28,27.71c2.3,27.58,7.35,42.58-17.7,42.58" transform="translate(-37.39 -6.37)"/><path class="cls-34" d="M452.77,371.51s.28-47.44-11.87-48.59" transform="translate(-37.39 -6.37)"/><path class="cls-11" d="M449,437.92h3V443h-3Z" transform="translate(-37.39 -6.37)"/><path class="cls-11" d="M452.77,437.92h3V443h-3Z" transform="translate(-37.39 -6.37)"/><path class="cls-28" d="M698.74,937.06s76.77-75.68,144.61-52.36,59,42.29,129.28,43.89c36.51.83,48.88,12.17,48.88,12.17l-23.73-215-59.6-147.59L801.54,582.4,729.6,691.89Z" transform="translate(-37.39 -6.37)"/><path class="cls-32" d="M938.18,578.22l-136.65,4.18-47.66,72.53L742,715.51s17.87,116.35,26.87,175.08c23.18-9.6,49.46-14.51,74.51-5.9,67.84,23.33,59,42.31,129.3,43.9,36.51.83,48.83,12.17,48.83,12.17l-23.69-215Z" transform="translate(-37.39 -6.37)"/><path class="cls-37" d="M814.6,1204.71s4.36,37.93-4.35,52.08-25.38,40.2-14.53,42.29c17.56,3.38,44.55-21,52-30.79s.49-53.16.8-61.92S814.6,1204.71,814.6,1204.71Z" transform="translate(-37.39 -6.37)"/><path class="cls-38" d="M814.58,1204.73a221.6,221.6,0,0,1,.92,24.41c7.46,1.76,19.7,3,34.51-2.9-.69-7.83-1.57-17-1.47-19.86C848.85,1197.61,814.58,1204.73,814.58,1204.73Z" transform="translate(-37.39 -6.37)"/><path class="cls-28" d="M850.94,1240.53c-5.28,2.25-6.38,6-15.3,13.08-10.3,8.22-25.42,3.19-25.42,3.19-8.65,14-25.38,40.21-14.53,42.3,17.56,3.38,44.57-21,52-30.82C851,1263.88,851.93,1253.91,850.94,1240.53Z" transform="translate(-37.39 -6.37)"/><path class="cls-37" d="M959.39,1202.76s-.57,38.18,9.5,51.39,29.25,37.48,18.66,40.64c-17.14,5.1-46.42-16.47-54.78-25.47s-5.77-52.85-6.95-61.54S959.39,1202.76,959.39,1202.76Z" transform="translate(-37.39 -6.37)"/><path class="cls-38" d="M959.41,1202.78a224.64,224.64,0,0,0,1.46,25.22c-15.18,8.34-23.75,6.63-34.58-.3-.09-7.86-.12-17.09-.51-19.91C924.61,1199.1,959.41,1202.78,959.41,1202.78Z" transform="translate(-37.39 -6.37)"/><path class="cls-28" d="M926.78,1242c5.48,1.71,6.94,5.29,16.52,11.49,11.07,7.16,25.61.65,25.61.65,10,13.12,29.25,37.49,18.66,40.65-17.14,5.1-46.44-16.5-54.8-25.51C929,1265.26,927.13,1255.42,926.78,1242Z" transform="translate(-37.39 -6.37)"/><path class="cls-12" d="M957,652.34l6.53,559.28s-20.4,20.49-41.19,2.36L858.49,678l-6.27,538.36s-28.07,14.44-42.76-1l-48.11-560Z" transform="translate(-37.39 -6.37)"/><path class="cls-13" d="M957.06,652.33l-195.72,3,8.2,95.69a368,368,0,0,0,56.13,7C835.93,798.32,848,848.79,856,892.22L858.47,678,868,757.72a459.24,459.24,0,0,0,90.17-14.1Z" transform="translate(-37.39 -6.37)"/><path class="cls-39" d="M815.08,1214.47l-44-508.12" transform="translate(-37.39 -6.37)"/><path class="cls-39" d="M960.09,1209.06,943.51,706.21" transform="translate(-37.39 -6.37)"/><path class="cls-27" d="M929.31,652s55.32,74.63,87,268.06c10.62,64.81,16.56-29.48,16.74-56.75.85-129.21-48.58-287.66-52.65-298.24" transform="translate(-37.39 -6.37)"/><path class="cls-27" d="M730,578.12s-41.53,243.51-38.7,329,15.87-13.09,25.59-47.68c25.31-90.09,48.3-159.71,66.21-191.89" transform="translate(-37.39 -6.37)"/><path class="cls-28" d="M990.28,597.36l-53.66,66.42c5.25,8.75,12.33,22.14,22,44.65,24.2-4.37,40.62-21.61,50.5-36C1002.42,642.24,995.68,616.36,990.28,597.36Z" transform="translate(-37.39 -6.37)"/><path class="cls-28" d="M757.57,624.65l-36.29,8.58-.11.16c-1.54,9.86-3.39,22.28-5.15,33.93,18.83,23.09,34.95,40,45.46,50.61,6.61-17.78,13-33.56,18.71-44.76l-16.62-38.38Z" transform="translate(-37.39 -6.37)"/><path class="cls-37" d="M726.41,386c-.22-63.87,78.82-90.42,78.82-90.42,41.16-15.94,18-72.34,18-72.34l57,7.68S864,270.26,898.5,290.49c26.41,15.47,81.31,18.31,86.37,81.22l-29.88,37-9.93,224.68s-85.21,31.71-154.82,4.53L776.56,424.43Z" transform="translate(-37.39 -6.37)"/><path class="cls-38" d="M823.24,223.19l57.09,7.72s-5.87,18.8-1.59,36.13c-9.71,9.57-30.6,24.27-52.82,9.15C835.72,253.71,823.24,223.19,823.24,223.19Z" transform="translate(-37.39 -6.37)"/><path class="cls-38" d="M898.5,290.49s-33.94,63.6-55.15,43.29c0,0-27.28-24.21-33-40.68l-14.55,22,16.94,69.29,38.26,19.3,63.24-33.87Z" transform="translate(-37.39 -6.37)"/><path class="cls-12" d="M902.33,294.63c28.49,18.34,77.49,14.18,82.54,77.09l-29.88,37-1.12,247.68S831,682.66,761.43,655.49L744.16,424.92,726.4,386c-.22-63.87,78.82-90.45,78.82-90.45,3.51-1.36,2.45-.54,5.08-2.43h0s12.27,29.79,31.82,48.83c27.16,26.44,56.38-51.44,56.38-51.44S898.92,292.43,902.33,294.63Z" transform="translate(-37.39 -6.37)"/><path class="cls-37" d="M882.33,155.16c6.62.81,2.4,49.4,2.4,49.4s13.59-5.64,15.38,6.78S890.74,229.12,885.2,226c0,0-6.93,35.6-40,36.77s-46.32-46.07-44.65-64.29-4.11-41.73-4.11-41.73l26.71-27.66S875.71,154.35,882.33,155.16Z" transform="translate(-37.39 -6.37)"/><path class="cls-40" d="M822,205.27a9.53,9.53,0,1,0-9.52,9.33A9.43,9.43,0,0,0,822,205.27Z" transform="translate(-37.39 -6.37)"/><path class="cls-40" d="M879.73,204.55a9.52,9.52,0,1,0-9.52,9.33A9.43,9.43,0,0,0,879.73,204.55Z" transform="translate(-37.39 -6.37)"/><path class="cls-41" d="M824.28,192a3.26,3.26,0,1,0-3.26,3.26A3.26,3.26,0,0,0,824.28,192Z" transform="translate(-37.39 -6.37)"/><path class="cls-41" d="M864.9,192a3.26,3.26,0,1,0-3.26,3.26A3.26,3.26,0,0,0,864.9,192Z" transform="translate(-37.39 -6.37)"/><path class="cls-38" d="M897.54,215.9c.93-3.85-.71-7.54-3.67-8.26s-6.11,1.82-7,5.67.71,7.54,3.67,8.26S896.61,219.74,897.54,215.9Z" transform="translate(-37.39 -6.37)"/><path class="cls-41" d="M876.6,157s-33.11,30.32-75.6,13.36-13.83-26.84-13.83-26.84c15.83-7.17,25-28.42,45.54-32.8s38.1,5.38,44.88,17.55c0,0,24.73-2.59,24.73,22.94s-13.5,50.68-13.5,50.68-5.31,11.43-5,2.54C884.18,191.9,888.23,188,876.6,157Z" transform="translate(-37.39 -6.37)"/><path class="cls-27" d="M881.38,205.27s-48.07,15.77-80.85-6.79c0,0-8.62,64.29,44.64,64.28,0,0,27.56,1.54,37-25.68C882.15,237.08,866.23,228,881.38,205.27Z" transform="translate(-37.39 -6.37)"/><path class="cls-28" d="M875,221l.11.21A16.66,16.66,0,0,0,879,234.16c-2.25,2.26-7.64,4.76-22.58,3.21-24.64-2.55-6.31-4.71-6.31-4.71C868.37,230.87,875,221,875,221Z" transform="translate(-37.39 -6.37)"/><path class="cls-28" d="M800.79,220.23c3.26,3.32,9.63,8.44,21,10.45,0,0,18.08,3.59-6.69,4.23a72.64,72.64,0,0,1-11.09-.6A72.2,72.2,0,0,1,800.79,220.23Z" transform="translate(-37.39 -6.37)"/><path class="cls-29" d="M888.83,201.67,875.06,207" transform="translate(-37.39 -6.37)"/><path class="cls-29" d="M885.2,226s.2,6.26-5.17,16.18" transform="translate(-37.39 -6.37)"/><path class="cls-41" d="M827.13,183.28s2.9,4.37-2.94,1.7-8-.87-12.62,2.56c-3.72,2.76-5.23.11-2.6-3.5S820.77,173.48,827.13,183.28Z" transform="translate(-37.39 -6.37)"/><path class="cls-41" d="M852.75,183.65s-2.69,4.5,3,1.56,7.93-1.25,12.72,2c3.85,2.58,5.22-.14,2.43-3.62S858.64,173.57,852.75,183.65Z" transform="translate(-37.39 -6.37)"/><path class="cls-37" d="M769.27,685.62l7.72,8.18s19.37-9.77,28.74-22.2l-8-14-24.11-2.49Z" transform="translate(-37.39 -6.37)"/><path class="cls-37" d="M942.64,679.67l-7.33,8.91s-19.64-12.05-29-24.48l5.19-9.79,24.69-3.14Z" transform="translate(-37.39 -6.37)"/><path class="cls-42" d="M772.36,696.23s24.06-10.51,36.86-29.19" transform="translate(-37.39 -6.37)"/><path class="cls-42" d="M945.74,694s-27.16-12-40-30.68" transform="translate(-37.39 -6.37)"/><path class="cls-27" d="M898.52,290.48s-5.58,110-9.6,201.56,30.66,147.8,30.66,147.8l-8.09,14.47s24.61,6.4,31.15,25.36c8.09-8.61,18.37-19.69,30.07-32.16,22.42-23.9,52.41-64.45,61.81-83.79,16.45-33.84-20.94-120-37-189.07s-60-73-74.89-76.07S898.52,290.48,898.52,290.48ZM962.85,461.8c0-4.49,20,60.68,19,65.19s-7,13.13-7,13.13Z" transform="translate(-37.39 -6.37)"/><path class="cls-27" d="M810.28,293.1s-9.19,5-24.07,8.09-58.78,6.95-74.89,76.07-53.5,155.23-37,189.07c9.4,19.34,39.39,59.83,61.81,83.73C749,663.85,762,678,769.27,685.62c.11-.3,6.67-16.94,28.47-28l-8.52-15.23s34.67-56.2,30.66-147.74S810.28,293.1,810.28,293.1ZM735.6,495.36,734,542.7s-6-8.63-7-13.13S735.64,490.87,735.6,495.36Z" transform="translate(-37.39 -6.37)"/><path class="cls-12" d="M921.67,389.18h28v5.27h-28Z" transform="translate(-37.39 -6.37)"/><path class="cls-28" d="M735.6,495.36l10.73-41.44s6.76-16,9.31,16.95,23.13,110.22,47.74,139.86l-10,39.09S741,555.83,734,542.7Z" transform="translate(-37.39 -6.37)"/><path class="cls-36" d="M788.4,310.95s-41.16,52.6-20.61,68c28,21,19.08,22.83,10.8,31.73s-14.4,11.45,16.68,78.85-6.78,121.09-6.78,121.09" transform="translate(-37.39 -6.37)"/><path class="cls-28" d="M919.58,639.84s-9.51-17.6-13.9-30.92c0,0,26-36.76,38.13-66.39,9.23-22.62,12.85-87.75,13.16-91.33,1.23-13.87,5.87,10.61,5.87,10.61l12,78.32Z" transform="translate(-37.39 -6.37)"/><path class="cls-36" d="M909.2,302.51s43.9,50.33,24.2,66.86c-26.8,22.48-17.83,23.81-9.09,32.26s15,10.67-12.47,79.62,13.21,120.56,13.21,120.56" transform="translate(-37.39 -6.37)"/><path class="cls-32" d="M790.43,360.63a11.35,11.35,0,1,1,13,9.47A11.35,11.35,0,0,1,790.43,360.63Z" transform="translate(-37.39 -6.37)"/><path class="cls-11" d="M795.55,359.83a6.16,6.16,0,1,1,7,5.14A6.16,6.16,0,0,1,795.55,359.83Z" transform="translate(-37.39 -6.37)"/><path class="cls-26" d="M801.64,358.88s-11.26-61.51,11.58-69" transform="translate(-37.39 -6.37)"/><path class="cls-18" d="M909.55,335.93s-16.69,0-19,27.25C888.33,390.29,883.35,405,908,405" transform="translate(-37.39 -6.37)"/><path class="cls-18" d="M910.88,335.89s16.69,0,19,27.25c2.26,27.12,7.23,41.87-17.41,41.87" transform="translate(-37.39 -6.37)"/><path class="cls-26" d="M910.56,337.19s.27-46.65-11.67-47.77" transform="translate(-37.39 -6.37)"/><path class="cls-11" d="M900.34,400h3v5h-3Z" transform="translate(-37.39 -6.37)"/><path class="cls-11" d="M904,400h3v5h-3Z" transform="translate(-37.39 -6.37)"/></g></g></g></svg>