<svg xmlns="http://www.w3.org/2000/svg" viewBox="0 0 369 76.79"><defs><style>.cls-1,.cls-2{fill:#fff;}.cls-2{opacity:0.34;}</style></defs><title>logo-emermedica</title><g id="Capa_2" data-name="Capa 2"><g id="Capa_1-2" data-name="Capa 1"><path class="cls-1" d="M16.48,48.46c.07,0-.54-.08-2-.14a34.41,34.41,0,0,1-5-.55,11.34,11.34,0,0,1-7.94-5.45C-.05,39.6-.41,36.17.47,32.2A20.94,20.94,0,0,1,8.24,19.84,21.47,21.47,0,0,1,22,15c4.33,0,7.69,1.19,10,3.63s3.21,6,2.26,10.27l-.82,3.7H9.81c-.93,5.72,1.3,8.58,6.54,8.58H31.5l-1.58,7.12c-5.6.07-10.09.14-13.44.14m4.17-26.32a10,10,0,0,0-7.91,3.56H25.09q-.36-3.56-4.45-3.56"/><path class="cls-1" d="M76.58,48.26l4.54-20.46a4.43,4.43,0,0,0-.78-4,5,5,0,0,0-3.9-1.6,7.58,7.58,0,0,0-4.68,1.25,7.62,7.62,0,0,0-2.37,4.4L64.85,48.26H55.63l4.54-20.46a4.44,4.44,0,0,0-.78-4,5,5,0,0,0-3.91-1.6,7.59,7.59,0,0,0-4.67,1.25,7.63,7.63,0,0,0-2.37,4.4L43.9,48.26H34.68l4.91-22.13c.79-3.56,3.09-6.36,6.9-8.44A21.32,21.32,0,0,1,57.07,15c4.12,0,7.34,1.26,9.66,3.7C69.57,16.28,73.34,15,78,15a15.68,15.68,0,0,1,9.4,2.66,7.51,7.51,0,0,1,3.22,8.44L85.73,48.26Z"/><path class="cls-1" d="M109.71,48.46c.07,0-.54-.08-2-.14a34.4,34.4,0,0,1-5-.55,11.38,11.38,0,0,1-7.94-5.45c-1.63-2.72-2-6.14-1.1-10.12a20.88,20.88,0,0,1,7.77-12.36A21.46,21.46,0,0,1,115.17,15c4.33,0,7.7,1.19,10,3.63s3.2,6,2.26,10.27l-.83,3.7H103c-.92,5.72,1.3,8.58,6.55,8.58h15.14l-1.58,7.12c-5.6.07-10.08.14-13.44.14m4.16-26.32A10,10,0,0,0,106,25.7h12.36q-.37-3.56-4.45-3.56"/><path class="cls-1" d="M150.3,22.21a8.55,8.55,0,0,0-5.49,2.09,8.92,8.92,0,0,0-3.21,5l-4.2,18.92h-9.08l4.12-18.57a17.65,17.65,0,0,1,7-11.1,20.83,20.83,0,0,1,12.47-3.63h6l-1.61,7.26Z"/><path class="cls-1" d="M196.69,48.26l4.54-20.46a4.44,4.44,0,0,0-.78-4,5,5,0,0,0-3.89-1.6,7.6,7.6,0,0,0-4.69,1.25,7.65,7.65,0,0,0-2.37,4.4L185,48.26h-9.22l4.54-20.46a4.42,4.42,0,0,0-.78-4,5,5,0,0,0-3.91-1.6,7.58,7.58,0,0,0-4.68,1.25,7.66,7.66,0,0,0-2.37,4.4L164,48.26h-9.22l4.91-22.13c.79-3.56,3.08-6.36,6.9-8.44A21.32,21.32,0,0,1,177.18,15c4.12,0,7.34,1.26,9.66,3.7,2.84-2.44,6.61-3.7,11.29-3.7a15.68,15.68,0,0,1,9.4,2.66,7.52,7.52,0,0,1,3.22,8.44l-4.92,22.13Z"/><path class="cls-1" d="M229.81,48.46c.07,0-.54-.08-2-.14a34.44,34.44,0,0,1-5-.55,11.37,11.37,0,0,1-7.94-5.45c-1.62-2.72-2-6.14-1.1-10.12a20.86,20.86,0,0,1,7.77-12.36A21.47,21.47,0,0,1,235.28,15c4.33,0,7.7,1.19,10,3.63s3.2,6,2.26,10.27l-.82,3.7h-23.6c-.92,5.72,1.3,8.58,6.54,8.58h15.15l-1.58,7.12c-5.6.07-10.08.14-13.44.14M234,22.14a10,10,0,0,0-7.91,3.56h12.35q-.35-3.56-4.44-3.56"/><path class="cls-1" d="M301.78,10.82a6.13,6.13,0,0,1-4.12,1.61,3.72,3.72,0,0,1-3.37-1.54,5.1,5.1,0,0,1-.51-4A7.3,7.3,0,0,1,296,3a5.92,5.92,0,0,1,4.13-1.6,3.71,3.71,0,0,1,3.36,1.53,4.62,4.62,0,0,1,.59,3.91,7.1,7.1,0,0,1-2.35,4M285.1,48.26l7.47-33.65h9.22l-7.46,33.65Z"/><polygon class="cls-1" points="234.7 11.61 243.64 4.29 252.86 4.29 243.93 11.61 234.7 11.61"/><path class="cls-1" d="M290.24,0H281l-3.54,16a16.6,16.6,0,0,0-5.89-1,21.47,21.47,0,0,0-13.71,4.82,20.93,20.93,0,0,0-7.78,12.36c-.88,4-.52,7.4,1.11,10.12a11.37,11.37,0,0,0,7.94,5.45,34.67,34.67,0,0,0,5,.56c1.45.07,2.07.14,2,.14,2.18,0,4.9,0,8-.07h5.38l0-.07h0ZM259.51,32.62c.54-2.45,1.16-4.94,2.93-6.91a10.34,10.34,0,0,1,8-3.6A4.36,4.36,0,0,1,274.24,24a6.33,6.33,0,0,1,.37,4.81L274,31.35,271.86,41h-6.63c-5.78,0-6.28-5.88-5.72-8.39"/><path class="cls-1" d="M368.06,26.74A9.58,9.58,0,0,0,366,19.45,12.84,12.84,0,0,0,361.2,16a16.65,16.65,0,0,0-5.9-1,21.44,21.44,0,0,0-13.7,4.82,20.91,20.91,0,0,0-7.78,12.36c-.88,4-.52,7.4,1.11,10.12a11.35,11.35,0,0,0,7.95,5.45,26.81,26.81,0,0,0,5,.56,18.83,18.83,0,0,0,6.4-1.24L354,48.39h9.23v-.07h0Zm-24.81,5.88c.54-2.45,1.16-4.94,2.93-6.91a10.33,10.33,0,0,1,8-3.6A4.34,4.34,0,0,1,358,24a6.31,6.31,0,0,1,.38,4.81l-.57,2.58L355.6,41H349c-5.78,0-6.28-5.88-5.71-8.39"/><path class="cls-1" d="M316.5,48.32c-5.17,0-9.08-1.53-11.79-4.46s-3.72-7.13-2.59-12.22A21,21,0,0,1,310.37,19a23.16,23.16,0,0,1,14.23-4.69H335l-1.61,7.27H323.35a11.41,11.41,0,0,0-7.61,2.79,12.49,12.49,0,0,0-4.28,7.05,8.4,8.4,0,0,0,1,6.91c1.34,1.82,3.38,2.72,6.17,2.72h10.47l-1.61,7.26Z"/><path class="cls-2" d="M152.28,72.19h-2.34l2.41-12.9H156a3.33,3.33,0,0,1,3.61,3.46c0,2.62-2.08,4.57-5.82,4.57l.28-1.6.46-.05a2.6,2.6,0,0,0,2.65-2.8c0-.55-.4-2.08-1.77-2.08h-1Z"/><path class="cls-2" d="M160.11,68.43a5.32,5.32,0,0,1,5.16-5.68,3.62,3.62,0,0,1,3.91,3.83c0,2.95-1.88,5.82-5.12,5.82a3.9,3.9,0,0,1-3.94-4m6.71-1.92c0-1.29-.52-2.43-1.7-2.43-2.06,0-2.65,2.73-2.65,4.2,0,1.73.63,2.8,2,2.8.7,0,2.32-.63,2.32-4.57"/><path class="cls-2" d="M173.82,64.56l0,0,.59-.72c.33-.39,1-1.12,1.64-1.12a1.65,1.65,0,0,1,1.25.66l-1.18,1.73a2.13,2.13,0,0,0-.86-.19c-.77,0-1.64.68-2,2.67l-.86,4.55h-2.19L171.94,63h2.19Z"/><path class="cls-2" d="M183.9,76.79h-2.21l1.18-6,0,0-.44.52a4.17,4.17,0,0,1-2.8,1.1c-1.64,0-2.65-1.44-2.65-3.43,0-2.95,2.21-6.23,5.08-6.23a2.81,2.81,0,0,1,2.1.85l.15-.62h2.21Zm-1.77-12.57c-1,0-2.84,1.33-2.84,4.57,0,1.24.59,2,1.44,2,1.07,0,2.73-1.12,3.17-5.82a2,2,0,0,0-1.77-.76"/><path class="cls-2" d="M193.19,70.34l0,0c-1.25,1.68-2.36,2.1-3.46,2.1a2,2,0,0,1-2-2.12,10.23,10.23,0,0,1,.24-2L189.06,63h2.19l-1.07,5.29a6.44,6.44,0,0,0-.17,1.27c-.05,1,.61,1.29.85,1.29,1.05,0,2.56-2.16,3-4.77l.55-3.08h2.21l-1.73,9.21h-2.17Z"/><path class="cls-2" d="M204.45,71.12a6.58,6.58,0,0,1-4,1.29c-1.71,0-2.86-1.4-2.86-3.61,0-2.58,2-6,5.68-6a2.11,2.11,0,0,1,2.32,1.91c0,2.4-3.63,3.65-5.66,3.72-.11.74,0,2.34,1.57,2.38a4,4,0,0,0,2.32-.87Zm-.9-6.12c0-.59-.26-.85-.85-.85-1,0-2.06,1.25-2.56,2.95,1.73-.15,3.34-.92,3.41-2.1"/><path class="cls-2" d="M216.31,71.82a5,5,0,0,1-2.29.59c-1.62,0-2.53-.83-2-3.3l1-4.88h-1.16L212.1,63h1.16l.42-2.21,2.3-.55L215.47,63h2.17l-.24,1.25h-2.18l-1,4.59c-.39,1.9.29,2.1.77,2.1a2.23,2.23,0,0,0,1.11-.31Z"/><path class="cls-2" d="M223.57,70.34l0,0c-1.25,1.68-2.36,2.1-3.46,2.1a2,2,0,0,1-2-2.12,10.23,10.23,0,0,1,.24-2L219.45,63h2.19l-1.07,5.29a6.44,6.44,0,0,0-.17,1.27c-.06,1,.61,1.29.85,1.29,1,0,2.56-2.16,3-4.77l.55-3.08h2.21l-1.73,9.21h-2.17Z"/><path class="cls-2" d="M238.7,64.56a2.84,2.84,0,0,0-1.31-.44,1.18,1.18,0,0,0-1.16,1.22c0,.53.46,1,1.2,1.82a4,4,0,0,1,1.16,2.49c0,1.79-1.59,2.76-3.47,2.76a4.13,4.13,0,0,1-2.73-1l.92-1.25a3.06,3.06,0,0,0,1.62.81,1.35,1.35,0,0,0,1.44-1.4c0-.63-.43-1.07-1.24-2A3.43,3.43,0,0,1,234,65.48c0-2,1.71-2.73,3.13-2.73a3.29,3.29,0,0,1,2.32.81Z"/><path class="cls-2" d="M248.27,72.19h-2.19l.29-1.36,0,0-.44.52a4.17,4.17,0,0,1-2.8,1.1c-1.64,0-2.65-1.44-2.65-3.43,0-2.95,2.21-6.23,5.09-6.23a2.8,2.8,0,0,1,2.1.85l.15-.63H250Zm-2.63-7.94c-1,0-2.84,1.31-2.84,4.55,0,1.24.59,2,1.44,2,1.07,0,2.73-1.12,3.17-5.82a2,2,0,0,0-1.77-.74"/><polygon class="cls-2" points="250.79 72.19 253.31 58.64 255.53 58.64 253 72.19 250.79 72.19"/><path class="cls-2" d="M261.46,70.34l0,0c-1.25,1.68-2.36,2.1-3.46,2.1a1.94,1.94,0,0,1-2-2.12,10.37,10.37,0,0,1,.24-2L257.33,63h2.19l-1.07,5.29a6.44,6.44,0,0,0-.17,1.27c-.05,1,.61,1.29.85,1.29,1.05,0,2.56-2.16,3-4.77l.55-3.08h2.21l-1.73,9.21H261Z"/><path class="cls-2" d="M271.78,70.82l0,0-.44.52a4.17,4.17,0,0,1-2.8,1.1c-1.64,0-2.65-1.44-2.65-3.43,0-2.95,2.21-6.23,5.09-6.23a2.81,2.81,0,0,1,2.1.85l1-5h2.21l-2.53,13.54h-2.19Zm-.74-6.6c-1,0-2.84,1.33-2.84,4.57,0,1.24.59,2,1.44,2,1.07,0,2.73-1.12,3.17-5.82a2,2,0,0,0-1.77-.76"/><path class="cls-2" d="M285,64.71l0,0a4.87,4.87,0,0,1,3.76-2c1.31,0,2,.59,2,2.12a10.2,10.2,0,0,1-.24,2l-1.09,5.31H287.3l1.07-5.29a6.55,6.55,0,0,0,.16-1.27c.05-1-.39-1.25-1-1.25-1.05,0-2.78,2.12-3.26,4.74l-.55,3.08h-2.21L283.24,63h2.17Z"/><path class="cls-2" d="M292.22,68.43a5.32,5.32,0,0,1,5.16-5.68,3.62,3.62,0,0,1,3.91,3.83c0,2.95-1.88,5.82-5.12,5.82a3.9,3.9,0,0,1-3.94-4m6.71-1.92c0-1.29-.52-2.43-1.7-2.43-2.06,0-2.65,2.73-2.65,4.2,0,1.73.62,2.8,2,2.8.7,0,2.32-.63,2.32-4.57"/><path class="cls-2" d="M308,64.56a2.85,2.85,0,0,0-1.31-.44,1.18,1.18,0,0,0-1.16,1.22c0,.53.46,1,1.2,1.82a4,4,0,0,1,1.16,2.49c0,1.79-1.58,2.76-3.46,2.76a4.14,4.14,0,0,1-2.73-1l.92-1.25a3.08,3.08,0,0,0,1.62.81,1.35,1.35,0,0,0,1.44-1.4c0-.63-.42-1.07-1.23-2a3.42,3.42,0,0,1-1.12-2.17c0-2,1.71-2.73,3.13-2.73a3.28,3.28,0,0,1,2.32.81Z"/><path class="cls-2" d="M318.2,64.67l0,0a4.42,4.42,0,0,1,3.17-2,1.78,1.78,0,0,1,1.86,2h0a4.74,4.74,0,0,1,3.37-2c1.38,0,2,.57,2,2.12a8.78,8.78,0,0,1-.22,2l-1,5.31h-2.19l.94-5.29a7.86,7.86,0,0,0,.15-1.27c0-1-.28-1.25-.79-1.25-1,0-2.54,2.12-2.89,4.28l-.57,3.54h-2.19l.94-5.29a7.81,7.81,0,0,0,.15-1.27c0-1-.27-1.25-.79-1.25-1,0-2.54,2.12-2.89,4.28l-.57,3.54h-2.19L316.28,63h2.19Z"/><path class="cls-2" d="M335.87,70.34l0,0c-1.25,1.68-2.36,2.1-3.46,2.1a2,2,0,0,1-2-2.12,10.23,10.23,0,0,1,.24-2L331.74,63h2.19l-1.07,5.29a6.6,6.6,0,0,0-.17,1.27c-.05,1,.61,1.29.85,1.29,1,0,2.56-2.16,3-4.77l.55-3.08h2.21l-1.73,9.21h-2.17Z"/><path class="cls-2" d="M347.13,71.12a6.58,6.58,0,0,1-4,1.29c-1.71,0-2.86-1.4-2.86-3.61,0-2.58,2-6,5.68-6a2.11,2.11,0,0,1,2.32,1.91c0,2.4-3.63,3.65-5.66,3.72-.11.74,0,2.34,1.57,2.38a4,4,0,0,0,2.32-.87Zm-.9-6.12c0-.59-.26-.85-.85-.85-1,0-2.06,1.25-2.56,2.95,1.73-.15,3.34-.92,3.41-2.1"/><path class="cls-2" d="M351,72.19l-1.71-9.1,2.32-.29c.31,2.12.77,5.23.83,7h0c.75-1.81,2.36-4.85,3.5-7l1.71.55-5.14,8.84Z"/><path class="cls-2" d="M364.52,71.12a6.59,6.59,0,0,1-4,1.29c-1.72,0-2.86-1.4-2.86-3.61,0-2.58,2-6,5.68-6a2.11,2.11,0,0,1,2.32,1.91c0,2.4-3.63,3.65-5.66,3.72-.11.74,0,2.34,1.57,2.38a4,4,0,0,0,2.32-.87Zm-.9-6.12c0-.59-.26-.85-.85-.85-1,0-2.06,1.25-2.56,2.95,1.73-.15,3.33-.92,3.41-2.1"/><path class="cls-2" d="M366.42,71.28A1.64,1.64,0,0,1,368,69.64a1.09,1.09,0,0,1,1,1.13,1.61,1.61,0,0,1-1.51,1.64,1.11,1.11,0,0,1-1.07-1.12"/></g></g></svg>