<svg xmlns="http://www.w3.org/2000/svg" xmlns:xlink="http://www.w3.org/1999/xlink" viewBox="0 0 527.21 179.79"><defs><style>.cls-1{fill:none;stroke:#fff;stroke-miterlimit:10;}.cls-2,.cls-7{fill:#fff;}.cls-3{clip-path:url(#clip-path);}.cls-4{clip-path:url(#clip-path-2);}.cls-5{clip-path:url(#clip-path-3);}.cls-6{clip-path:url(#clip-path-4);}.cls-7{opacity:0.34;}</style><clipPath id="clip-path"><path class="cls-1" d="M103.57,68.25c-3.49.83-19.71,6.28-34.56,10.5S47.54,85,41.87,82.9C30.1,78.64,30,73,30,73a23.2,23.2,0,0,0-.67,20.25c4.53,10.25,10.83,13.07,28.92,8s36.2-10.86,39.77-12,8.86-2.79,12.44-3.67a4.33,4.33,0,0,1,5.22,2.54s5.58-3.85.48-12.68c-2.7-4.7-6.88-7.39-10.74-7.39a7.94,7.94,0,0,0-1.83.21"/></clipPath><clipPath id="clip-path-2"><path class="cls-1" d="M83.9,118.34c-14.82,4.21-21.47,6.21-27.15,4.15-11.77-4.26-11.59-9.64-11.59-9.64a20.6,20.6,0,0,0-1.25,19.58c4.53,10.26,11.29,13.61,29.31,8.85s30.22-8.66,33.78-9.76,12.3-3.74,31.59-9.87l-7-18.36c-19,6.05-32.86,10.83-47.71,15.05"/></clipPath><clipPath id="clip-path-3"><path class="cls-2" d="M58.7,52.12C41.5,61.5,33.12,68,30.76,71.52a22.58,22.58,0,0,0-2.51,20.61c3.53,9.28,10.3,10.89,10.3,10.89s-3.64-2.53-.32-9.11C41.71,87,51.4,80.39,65.59,72.34S111,49.57,111,49.57l-8-20.88S73.21,44.2,58.7,52.12"/></clipPath><clipPath id="clip-path-4"><path class="cls-2" d="M103.57,68.25s12.23-1.94-2.3,7.74c-5.44,3.62-12.84,8.16-27.36,16.08-17.2,9.38-25.57,15.84-27.94,19.4a22.55,22.55,0,0,0-2.51,20.61c3.53,9.28,10.41,10.54,10.41,10.54s-3.76-2.17-.44-8.75c3.48-6.91,13.18-13.52,27.38-21.58,9.49-5.39,17.94-10.4,27.21-16.18,7.8-4.86,13.54-11.23,9.9-20.8-2.4-6.29-7.58-7.42-11-7.42a14.47,14.47,0,0,0-3.33.36"/></clipPath></defs><title>logo-emermedica3_1</title><g id="Capa_2" data-name="Capa 2"><g id="Capa_1-2" data-name="Capa 1"><g class="cls-3"><rect class="cls-1" x="20.8" y="52.07" width="104.09" height="70.21" transform="translate(-26.25 31.62) rotate(-20.84)"/></g><path class="cls-1" d="M103.57,68.25c-3.49.83-19.71,6.28-34.56,10.5S47.54,85,41.87,82.9C30.1,78.64,30,73,30,73a23.2,23.2,0,0,0-.67,20.25c4.53,10.25,10.83,13.07,28.92,8s36.2-10.86,39.77-12,8.86-2.79,12.44-3.67a4.33,4.33,0,0,1,5.22,2.54s5.58-3.85.48-12.68c-2.7-4.7-6.88-7.39-10.74-7.39a7.94,7.94,0,0,0-1.83.21"/><g class="cls-4"><rect class="cls-1" x="34.69" y="86.97" width="108.26" height="75.38" transform="translate(-38.54 39.76) rotate(-20.84)"/></g><path class="cls-1" d="M83.9,118.34c-14.82,4.21-21.47,6.21-27.15,4.15-11.77-4.26-11.59-9.64-11.59-9.64a20.6,20.6,0,0,0-1.25,19.58c4.53,10.26,11.29,13.61,29.31,8.85s30.22-8.66,33.78-9.76,12.3-3.74,31.59-9.87l-7-18.36c-19,6.05-32.86,10.83-47.71,15.05"/><path class="cls-2" d="M58.7,52.12C41.5,61.5,33.12,68,30.76,71.52a22.58,22.58,0,0,0-2.51,20.61c3.53,9.28,10.3,10.89,10.3,10.89s-3.64-2.53-.32-9.11C41.71,87,51.4,80.39,65.59,72.34S111,49.57,111,49.57l-8-20.88S73.21,44.2,58.7,52.12"/><g class="cls-5"><rect class="cls-2" x="14.32" y="15.77" width="107.08" height="100.17" transform="translate(-18.99 28.45) rotate(-20.84)"/></g><path class="cls-2" d="M103.57,68.25s12.23-1.94-2.3,7.74c-5.44,3.62-12.84,8.16-27.36,16.08-17.2,9.38-25.57,15.84-27.94,19.4a22.55,22.55,0,0,0-2.51,20.61c3.53,9.28,10.41,10.54,10.41,10.54s-3.76-2.17-.44-8.75c3.48-6.91,13.18-13.52,27.38-21.58,9.49-5.39,17.94-10.4,27.21-16.18,7.8-4.86,13.54-11.23,9.9-20.8-2.4-6.29-7.58-7.42-11-7.42a14.47,14.47,0,0,0-3.33.36"/><g class="cls-6"><rect class="cls-2" x="29.02" y="54.28" width="103.44" height="100.36" transform="translate(-31.88 35.56) rotate(-20.84)"/></g><path class="cls-2" d="M174.69,126.57c.07,0-.54-.08-2-.14a34.41,34.41,0,0,1-5-.55,11.34,11.34,0,0,1-7.94-5.45c-1.63-2.72-2-6.14-1.11-10.12a20.94,20.94,0,0,1,7.77-12.36,21.47,21.47,0,0,1,13.71-4.82c4.33,0,7.69,1.19,10,3.63s3.21,6,2.26,10.27l-.82,3.7H168c-.93,5.72,1.3,8.58,6.54,8.58h15.15l-1.58,7.12c-5.6.07-10.09.14-13.44.14m4.17-26.32a10,10,0,0,0-7.91,3.56h12.36q-.36-3.56-4.45-3.56"/><path class="cls-2" d="M234.79,126.36l4.54-20.46a4.43,4.43,0,0,0-.78-4,5,5,0,0,0-3.9-1.6,6.2,6.2,0,0,0-7,5.65l-4.54,20.46h-9.22l4.54-20.46a4.44,4.44,0,0,0-.78-4,5,5,0,0,0-3.91-1.6,6.2,6.2,0,0,0-7,5.65l-4.54,20.46h-9.22l4.91-22.13c.79-3.56,3.09-6.36,6.9-8.44a21.32,21.32,0,0,1,10.58-2.66c4.12,0,7.34,1.26,9.66,3.7,2.85-2.44,6.61-3.7,11.3-3.7a15.68,15.68,0,0,1,9.4,2.66,7.51,7.51,0,0,1,3.22,8.44l-4.91,22.13Z"/><path class="cls-2" d="M267.92,126.57c.07,0-.54-.08-2-.14a34.4,34.4,0,0,1-5-.55,11.38,11.38,0,0,1-7.94-5.45c-1.63-2.72-2-6.14-1.1-10.12a20.88,20.88,0,0,1,7.77-12.36,21.46,21.46,0,0,1,13.71-4.82c4.33,0,7.7,1.19,10,3.63s3.2,6,2.26,10.27l-.83,3.7h-23.6c-.92,5.72,1.3,8.58,6.55,8.58h15.14l-1.58,7.12c-5.6.07-10.08.14-13.44.14m4.16-26.32a10,10,0,0,0-7.91,3.56h12.36q-.37-3.56-4.45-3.56"/><path class="cls-2" d="M308.52,100.31A8.55,8.55,0,0,0,303,102.4a8.92,8.92,0,0,0-3.21,5l-4.2,18.92h-9.08l4.12-18.57a17.65,17.65,0,0,1,7-11.1A20.83,20.83,0,0,1,310.13,93h6l-1.61,7.26Z"/><path class="cls-2" d="M354.9,126.36l4.54-20.46a4.44,4.44,0,0,0-.78-4,5,5,0,0,0-3.89-1.6,6.2,6.2,0,0,0-7.06,5.65l-4.54,20.46H334l4.54-20.46a4.42,4.42,0,0,0-.78-4,5,5,0,0,0-3.91-1.6,7.58,7.58,0,0,0-4.68,1.25,7.66,7.66,0,0,0-2.37,4.4l-4.54,20.46H313l4.91-22.13c.79-3.56,3.08-6.36,6.9-8.44a21.32,21.32,0,0,1,10.58-2.66c4.12,0,7.34,1.26,9.66,3.7,2.84-2.44,6.61-3.7,11.29-3.7a15.68,15.68,0,0,1,9.4,2.66,7.52,7.52,0,0,1,3.22,8.44L364,126.36Z"/><path class="cls-2" d="M388,126.57c.07,0-.54-.08-2-.14a34.44,34.44,0,0,1-5-.55,11.37,11.37,0,0,1-7.94-5.45c-1.62-2.72-2-6.14-1.1-10.12a20.86,20.86,0,0,1,7.77-12.36,21.47,21.47,0,0,1,13.7-4.82c4.33,0,7.7,1.19,10,3.63s3.2,6,2.26,10.27l-.82,3.7h-23.6c-.92,5.72,1.3,8.58,6.54,8.58H403l-1.58,7.12c-5.6.07-10.08.14-13.44.14m4.17-26.32a10,10,0,0,0-7.91,3.56h12.35q-.35-3.56-4.44-3.56"/><path class="cls-2" d="M460,88.92a6.13,6.13,0,0,1-4.12,1.61A3.72,3.72,0,0,1,452.5,89a5.1,5.1,0,0,1-.51-4,7.3,7.3,0,0,1,2.26-3.91,5.92,5.92,0,0,1,4.13-1.6A3.71,3.71,0,0,1,461.74,81a4.62,4.62,0,0,1,.59,3.91,7.1,7.1,0,0,1-2.35,4m-16.68,37.43,7.47-33.65H460l-7.46,33.65Z"/><polygon class="cls-2" points="392.92 89.71 401.85 82.39 411.07 82.39 402.14 89.71 392.92 89.71"/><path class="cls-2" d="M448.45,78.1h-9.24l-3.54,16a16.6,16.6,0,0,0-5.89-1,21.47,21.47,0,0,0-13.71,4.82,20.93,20.93,0,0,0-7.78,12.36c-.88,4-.52,7.4,1.11,10.12a11.37,11.37,0,0,0,7.94,5.45,34.67,34.67,0,0,0,5,.56c1.45.07,2.07.14,2,.14,2.18,0,4.9,0,8-.07h5.38l0-.07h0Zm-30.73,32.62c.54-2.45,1.16-4.94,2.93-6.91a10.34,10.34,0,0,1,8-3.6,4.36,4.36,0,0,1,3.78,1.86,6.33,6.33,0,0,1,.37,4.81l-.57,2.58-2.19,9.66h-6.63c-5.78,0-6.28-5.88-5.72-8.39"/><path class="cls-2" d="M526.27,104.84a9.58,9.58,0,0,0-2.09-7.28,12.84,12.84,0,0,0-4.77-3.47,16.65,16.65,0,0,0-5.9-1,21.44,21.44,0,0,0-13.7,4.82A20.91,20.91,0,0,0,492,110.3c-.88,4-.52,7.4,1.11,10.12a11.35,11.35,0,0,0,7.95,5.45,26.81,26.81,0,0,0,5,.56,18.83,18.83,0,0,0,6.4-1.24l-.22,1.31h9.23v-.07h0Zm-24.81,5.88c.54-2.45,1.16-4.94,2.93-6.91a10.33,10.33,0,0,1,8-3.6,4.34,4.34,0,0,1,3.77,1.86,6.31,6.31,0,0,1,.38,4.81l-.57,2.58-2.19,9.66h-6.63c-5.78,0-6.28-5.88-5.71-8.39"/><path class="cls-2" d="M474.72,126.42c-5.17,0-9.08-1.53-11.79-4.46s-3.72-7.13-2.59-12.22a21,21,0,0,1,8.26-12.63,23.16,23.16,0,0,1,14.23-4.69h10.41l-1.61,7.27H481.56a11.41,11.41,0,0,0-7.61,2.79,12.49,12.49,0,0,0-4.28,7.05,8.4,8.4,0,0,0,1,6.91c1.34,1.82,3.38,2.72,6.17,2.72h10.47l-1.61,7.26Z"/><path class="cls-7" d="M310.49,150.29h-2.34l2.41-12.9h3.65a3.33,3.33,0,0,1,3.61,3.46c0,2.62-2.08,4.57-5.82,4.57l.28-1.6.46-.05a2.6,2.6,0,0,0,2.65-2.8c0-.55-.4-2.08-1.77-2.08h-1Z"/><path class="cls-7" d="M318.32,146.53a5.32,5.32,0,0,1,5.16-5.68,3.62,3.62,0,0,1,3.91,3.83c0,2.95-1.88,5.82-5.12,5.82a3.9,3.9,0,0,1-3.94-4m6.71-1.92c0-1.29-.52-2.43-1.7-2.43-2.06,0-2.65,2.73-2.65,4.2,0,1.73.63,2.8,2,2.8.7,0,2.32-.63,2.32-4.57"/><path class="cls-7" d="M332,142.66l0,0,.59-.72c.33-.39,1-1.12,1.64-1.12a1.65,1.65,0,0,1,1.25.66l-1.18,1.73a2.13,2.13,0,0,0-.86-.19c-.77,0-1.64.68-2,2.67l-.86,4.55h-2.19l1.72-9.21h2.19Z"/><path class="cls-7" d="M342.11,154.9H339.9l1.18-6,0,0-.44.52a4.17,4.17,0,0,1-2.8,1.1c-1.64,0-2.65-1.44-2.65-3.43,0-2.95,2.21-6.23,5.08-6.23a2.81,2.81,0,0,1,2.1.85l.15-.62h2.21Zm-1.77-12.57c-1,0-2.84,1.33-2.84,4.57,0,1.24.59,2,1.44,2,1.07,0,2.73-1.12,3.17-5.82a2,2,0,0,0-1.77-.76"/><path class="cls-7" d="M351.4,148.45l0,0c-1.25,1.68-2.36,2.1-3.46,2.1a2,2,0,0,1-2-2.12,10.23,10.23,0,0,1,.24-2l1.09-5.31h2.19l-1.07,5.29a6.44,6.44,0,0,0-.17,1.27c-.05,1,.61,1.29.85,1.29,1.05,0,2.56-2.16,3-4.77l.55-3.08h2.21l-1.73,9.21H351Z"/><path class="cls-7" d="M362.66,149.22a6.58,6.58,0,0,1-4,1.29c-1.71,0-2.86-1.4-2.86-3.61,0-2.58,2-6,5.68-6a2.11,2.11,0,0,1,2.32,1.91c0,2.4-3.63,3.65-5.66,3.72-.11.74,0,2.34,1.57,2.38A4,4,0,0,0,362,148Zm-.9-6.12c0-.59-.26-.85-.85-.85-1,0-2.06,1.25-2.56,2.95,1.73-.15,3.34-.92,3.41-2.1"/><path class="cls-7" d="M374.53,149.92a5,5,0,0,1-2.29.59c-1.62,0-2.53-.83-2-3.3l1-4.88h-1.16l.22-1.25h1.16l.42-2.21,2.3-.55-.52,2.77h2.17l-.24,1.25h-2.18l-1,4.59c-.39,1.9.29,2.1.77,2.1a2.23,2.23,0,0,0,1.11-.31Z"/><path class="cls-7" d="M381.79,148.45l0,0c-1.25,1.68-2.36,2.1-3.46,2.1a2,2,0,0,1-2-2.12,10.23,10.23,0,0,1,.24-2l1.09-5.31h2.19l-1.07,5.29a6.44,6.44,0,0,0-.17,1.27c-.06,1,.61,1.29.85,1.29,1,0,2.56-2.16,3-4.77l.55-3.08h2.21l-1.73,9.21h-2.17Z"/><path class="cls-7" d="M396.91,142.66a2.84,2.84,0,0,0-1.31-.44,1.18,1.18,0,0,0-1.16,1.22c0,.53.46,1,1.2,1.82a4,4,0,0,1,1.16,2.49c0,1.79-1.59,2.76-3.47,2.76a4.13,4.13,0,0,1-2.73-1l.92-1.25a3.06,3.06,0,0,0,1.62.81,1.35,1.35,0,0,0,1.44-1.4c0-.63-.43-1.07-1.24-2a3.43,3.43,0,0,1-1.12-2.17c0-2,1.71-2.73,3.13-2.73a3.29,3.29,0,0,1,2.32.81Z"/><path class="cls-7" d="M406.48,150.29h-2.19l.29-1.36,0,0-.44.52a4.17,4.17,0,0,1-2.8,1.1c-1.64,0-2.65-1.44-2.65-3.43,0-2.95,2.21-6.23,5.09-6.23a2.8,2.8,0,0,1,2.1.85l.15-.63h2.21Zm-2.63-7.94c-1,0-2.84,1.31-2.84,4.55,0,1.24.59,2,1.44,2,1.07,0,2.73-1.12,3.17-5.82a2,2,0,0,0-1.77-.74"/><polygon class="cls-7" points="409 150.29 411.53 136.75 413.74 136.75 411.21 150.29 409 150.29"/><path class="cls-7" d="M419.67,148.45l0,0c-1.25,1.68-2.36,2.1-3.46,2.1a1.94,1.94,0,0,1-2-2.12,10.37,10.37,0,0,1,.24-2l1.09-5.31h2.19l-1.07,5.29a6.44,6.44,0,0,0-.17,1.27c-.05,1,.61,1.29.85,1.29,1.05,0,2.56-2.16,3-4.77l.55-3.08h2.21l-1.73,9.21h-2.17Z"/><path class="cls-7" d="M430,148.93l0,0-.44.52a4.17,4.17,0,0,1-2.8,1.1c-1.64,0-2.65-1.44-2.65-3.43,0-2.95,2.21-6.23,5.09-6.23a2.81,2.81,0,0,1,2.1.85l1-5h2.21l-2.53,13.54H429.7Zm-.74-6.6c-1,0-2.84,1.33-2.84,4.57,0,1.24.59,2,1.44,2,1.07,0,2.73-1.12,3.17-5.82a2,2,0,0,0-1.77-.76"/><path class="cls-7" d="M443.22,142.81l0,0a4.87,4.87,0,0,1,3.76-2c1.31,0,2,.59,2,2.12a10.2,10.2,0,0,1-.24,2l-1.09,5.31h-2.19l1.07-5.29a6.55,6.55,0,0,0,.16-1.27c.05-1-.39-1.25-1-1.25-1.05,0-2.78,2.12-3.26,4.74l-.55,3.08h-2.21l1.73-9.21h2.17Z"/><path class="cls-7" d="M450.43,146.53a5.32,5.32,0,0,1,5.16-5.68,3.62,3.62,0,0,1,3.91,3.83c0,2.95-1.88,5.82-5.12,5.82a3.9,3.9,0,0,1-3.94-4m6.71-1.92c0-1.29-.52-2.43-1.7-2.43-2.06,0-2.65,2.73-2.65,4.2,0,1.73.62,2.8,2,2.8.7,0,2.32-.63,2.32-4.57"/><path class="cls-7" d="M466.2,142.66a2.85,2.85,0,0,0-1.31-.44,1.18,1.18,0,0,0-1.16,1.22c0,.53.46,1,1.2,1.82a4,4,0,0,1,1.16,2.49c0,1.79-1.58,2.76-3.46,2.76a4.14,4.14,0,0,1-2.73-1l.92-1.25a3.08,3.08,0,0,0,1.62.81,1.35,1.35,0,0,0,1.44-1.4c0-.63-.42-1.07-1.23-2a3.42,3.42,0,0,1-1.12-2.17c0-2,1.71-2.73,3.13-2.73a3.28,3.28,0,0,1,2.32.81Z"/><path class="cls-7" d="M476.41,142.77l0,0a4.42,4.42,0,0,1,3.17-2,1.78,1.78,0,0,1,1.86,2h0a4.74,4.74,0,0,1,3.37-2c1.38,0,2,.57,2,2.12a8.78,8.78,0,0,1-.22,2l-1,5.31H483.5l.94-5.29a7.86,7.86,0,0,0,.15-1.27c0-1-.28-1.25-.79-1.25-1,0-2.54,2.12-2.89,4.28l-.57,3.54h-2.19l.94-5.29a7.81,7.81,0,0,0,.15-1.27c0-1-.27-1.25-.79-1.25-1,0-2.54,2.12-2.89,4.28l-.57,3.54h-2.19l1.72-9.21h2.19Z"/><path class="cls-7" d="M494.08,148.45l0,0c-1.25,1.68-2.36,2.1-3.46,2.1a2,2,0,0,1-2-2.12,10.23,10.23,0,0,1,.24-2l1.09-5.31h2.19l-1.07,5.29a6.6,6.6,0,0,0-.17,1.27c-.05,1,.61,1.29.85,1.29,1,0,2.56-2.16,3-4.77l.55-3.08h2.21l-1.73,9.21h-2.17Z"/><path class="cls-7" d="M505.34,149.22a6.58,6.58,0,0,1-4,1.29c-1.71,0-2.86-1.4-2.86-3.61,0-2.58,2-6,5.68-6a2.11,2.11,0,0,1,2.32,1.91c0,2.4-3.63,3.65-5.66,3.72-.11.74,0,2.34,1.57,2.38a4,4,0,0,0,2.32-.87Zm-.9-6.12c0-.59-.26-.85-.85-.85-1,0-2.06,1.25-2.56,2.95,1.73-.15,3.34-.92,3.41-2.1"/><path class="cls-7" d="M509.19,150.29l-1.71-9.1,2.32-.29c.31,2.12.77,5.23.83,7h0c.75-1.81,2.36-4.85,3.5-7l1.71.55-5.14,8.84Z"/><path class="cls-7" d="M522.73,149.22a6.59,6.59,0,0,1-4,1.29c-1.72,0-2.86-1.4-2.86-3.61,0-2.58,2-6,5.68-6a2.11,2.11,0,0,1,2.32,1.91c0,2.4-3.63,3.65-5.66,3.72-.11.74,0,2.34,1.57,2.38a4,4,0,0,0,2.32-.87Zm-.9-6.12c0-.59-.26-.85-.85-.85-1,0-2.06,1.25-2.56,2.95,1.73-.15,3.33-.92,3.41-2.1"/><path class="cls-7" d="M524.63,149.39a1.64,1.64,0,0,1,1.57-1.64,1.09,1.09,0,0,1,1,1.13,1.61,1.61,0,0,1-1.51,1.64,1.11,1.11,0,0,1-1.07-1.12"/></g></g></svg>