<svg xmlns="http://www.w3.org/2000/svg" viewBox="0 0 542.47 94.82"><defs><style>.cls-1{fill:#fcbe19;}.cls-2{fill:#c5c3c3;}</style></defs><title>logo_2</title><g id="Capa_2" data-name="Capa 2"><g id="Capa_1-2" data-name="Capa 1"><polygon class="cls-1" points="25.17 0 25.17 30.67 40.9 30.67 40.9 0 66.85 0 66.85 90.06 42.08 90.06 42.08 57.81 25.17 57.81 25.17 90.06 0 90.06 0 0 25.17 0"/><path class="cls-1" d="M119.35,18.92H93.91L70.17,90.22H94.36l2.06-7.89h20l2.14,7.89,23.52.37ZM102.66,61.47l4-14.45,3.54,14.45Z"/><path class="cls-1" d="M203.41,46.64a35.94,35.94,0,0,0-7.52-14.75,37,37,0,0,0-10-8.26,37.36,37.36,0,0,0-13-4.42l-28.17.32V90.29h27c2-.42,16.51-3.61,23.89-12.39a42.66,42.66,0,0,0,4.13-6,37.14,37.14,0,0,0,4-11.06A35.34,35.34,0,0,0,203.41,46.64ZM180.22,59.11a13.49,13.49,0,0,1-5.46,6.64A14.87,14.87,0,0,1,168,68.1V41.41l1.77.15a16.63,16.63,0,0,1,4.57,2.06,16,16,0,0,1,4.13,3.83,12.52,12.52,0,0,1,2.21,4.42A12.22,12.22,0,0,1,180.22,59.11Z"/><polygon class="cls-1" points="354.22 18.87 354.22 90.64 374.76 90.64 374.76 69.6 386.97 90.64 407.7 90.64 407.7 18.87 385.81 18.87 385.03 40.3 374.95 18.87 354.22 18.87"/><path class="cls-2" d="M344.12,35.9a37.15,37.15,0,0,0-17.55-15A40.84,40.84,0,0,0,307,17.47a38.66,38.66,0,0,0-25.22,11.8,35,35,0,0,0-8.11,12.24,30.51,30.51,0,0,0-2.21,11.95,62,62,0,0,0,1.18,9c.37,2.08.75,3.8,1,5l-.88,1.13-.74.49c-2.92,2-4.11,2.84-4.82,3.29a13.63,13.63,0,0,1-6.24,2.11c-4.43.15-7.75-3.23-8.7-4.28l1.33-1.33a27.62,27.62,0,0,0,5.9-6.34A27.27,27.27,0,0,0,262.71,56a28.54,28.54,0,0,0-5.21-26.74,29,29,0,0,0-9.14-6.88A36.62,36.62,0,0,0,239.22,19l-31.66-.29v72h23.79V77.88L243,89.09a28.82,28.82,0,0,0,7.67,4.13c6.59,2.34,12.32,1.6,17.11,1a40.17,40.17,0,0,0,12-3.15,38.19,38.19,0,0,0,8.85-5.51l2.05,1a42.77,42.77,0,0,0,16,4.87,41.54,41.54,0,0,0,16.74-1.7,38.45,38.45,0,0,0,13.86-8c.8-.75,1.53-1.51,2.23-2.29a15.32,15.32,0,0,1-24.79-12.06c0-.2,0-.4,0-.61a16.12,16.12,0,0,1-8.64,0c0,.19,0,.38,0,.57A15.37,15.37,0,1,1,295.57,52.8a12.87,12.87,0,0,1,3.85-8,15.33,15.33,0,1,1,22.3.61A12.78,12.78,0,0,1,325,52.85,15.33,15.33,0,0,1,344.59,72a39,39,0,0,0,4.25-13.8A37.43,37.43,0,0,0,344.12,35.9ZM239.49,50.5a5.51,5.51,0,0,1-2.95,2.29H231V42.09l5.38-.15A5.44,5.44,0,0,1,239,43.72a6.42,6.42,0,0,1,.44,6.78Z"/><circle class="cls-1" cx="310.6" cy="34.64" r="12.49"/><circle class="cls-1" cx="329.71" cy="67.19" r="12.49"/><circle class="cls-1" cx="290.78" cy="67.72" r="12.49"/><rect class="cls-2" x="441.89" y="18.75" width="10.62" height="70.59"/><path class="cls-2" d="M492,41.94a18,18,0,0,0-7.08-3.61c-2.65-.72-4.69-.65-8.77-.52-3.77.13-5.65.19-7.59.88A16.59,16.59,0,0,0,461,44.3a17,17,0,0,0-3.1,6.86l-.15,2.21,9.66.22.66-2.58a10.49,10.49,0,0,1,5.75-5,11.28,11.28,0,0,1,4.87-.37c2,.17,4.17.35,6,1.92a8.29,8.29,0,0,1,2.65,4.57V60.6H469a15.25,15.25,0,0,0-6.78,1.84,8.85,8.85,0,0,0-2.95,2.43,7.79,7.79,0,0,0-1.33,3l-.15,12.76a15,15,0,0,0,5.83,6.86c1.7,1,3.1,1.32,5.9,1.92,3.86.82,7.71.52,15.41-.07a3.09,3.09,0,0,0,1-.22,3.51,3.51,0,0,0,1.55-1.33v1.47h10.4V52.12A18.07,18.07,0,0,0,492,41.94Zm-4.37,33.21,0,.12h0l-.07.25a9.73,9.73,0,0,1-2.85,4.65c-3.69,3.27-9.19,2.64-12.49.88a8.81,8.81,0,0,1-3.44-3,7.54,7.54,0,0,1-1.28-4.82,6.6,6.6,0,0,1,1.67-3.93,6.69,6.69,0,0,1,4.52-2.06h14l0,8.08Z"/><rect class="cls-2" x="501.54" y="18.75" width="10.62" height="70.59"/><path class="cls-2" d="M541.62,43.57a11.6,11.6,0,0,0-6-5.09,17.11,17.11,0,0,0-3.83-1,72,72,0,0,0-14.9-.43,9,9,0,0,0-4.75,2.49A8.66,8.66,0,0,0,510.5,42l0,38.71a8.53,8.53,0,0,0,2.06,6.39c1.19,1.21,2.5,1.58,4.33,2.06,1.35.36,4.45,1,12.29.2a26.4,26.4,0,0,0,5.6-.88c4.51-1.79,6.72-6.15,7.67-8.46V47.48A9,9,0,0,0,541.62,43.57Zm-9,31.73c-.6,2.89-2.25,5.1-4.39,5.53a4.18,4.18,0,0,1-1.57,0l-7.75.07c-.57-.12-4.17-.89-5.61-3.9a5.89,5.89,0,0,1-.56-2.18V51l.32-.1a8.3,8.3,0,0,1,2.2-2.86,10,10,0,0,1,4.19-1.91c2.5-.62,6.53-1.61,10,.57a8.9,8.9,0,0,1,3.19,3.62Z"/></g></g></svg>