<svg xmlns="http://www.w3.org/2000/svg" xmlns:xlink="http://www.w3.org/1999/xlink" viewBox="0 0 1141.58 1297.71"><defs><style>.cls-1,.cls-19,.cls-23,.cls-27,.cls-35,.cls-37,.cls-40,.cls-43,.cls-6{fill:none;}.cls-2{clip-path:url(#clip-path);}.cls-3{clip-path:url(#clip-path-2);}.cls-4{opacity:0.57;}.cls-5{fill:#66a6ff;}.cls-10,.cls-11,.cls-12,.cls-13,.cls-14,.cls-15,.cls-16,.cls-17,.cls-18,.cls-20,.cls-21,.cls-22,.cls-24,.cls-25,.cls-26,.cls-28,.cls-29,.cls-30,.cls-31,.cls-32,.cls-33,.cls-34,.cls-36,.cls-38,.cls-39,.cls-41,.cls-42,.cls-5,.cls-8,.cls-9{fill-rule:evenodd;}.cls-6{stroke:#532d9b;stroke-width:4px;}.cls-19,.cls-23,.cls-27,.cls-30,.cls-35,.cls-37,.cls-40,.cls-43,.cls-6{stroke-linecap:round;stroke-linejoin:round;}.cls-7{clip-path:url(#clip-path-3);}.cls-8{fill:#b9e7ff;}.cls-9{fill:#8bd8ff;}.cls-10{fill:#0035ac;}.cls-11{fill:#0045d6;}.cls-12{fill:#006cff;}.cls-13{fill:#ff3790;}.cls-14{fill:#d21f9e;}.cls-15{fill:#003cbe;}.cls-16{fill:#00a4ed;}.cls-17{fill:#00c8ec;}.cls-18{fill:#0df;}.cls-19{stroke:#00c8ec;}.cls-19,.cls-23,.cls-27,.cls-30,.cls-35,.cls-37,.cls-40,.cls-43{stroke-width:2px;}.cls-20{fill:#ffd4a4;}.cls-21{fill:#ffccba;}.cls-22{fill:#ffbaa0;}.cls-23{stroke:#0093ed;}.cls-24{fill:#ffe7c7;}.cls-25{fill:#ffa398;}.cls-26{fill:#94786d;}.cls-27{stroke:#ff3790;}.cls-28{fill:#ddf7ff;}.cls-29{fill:#cfedfd;}.cls-30{fill:#fff;stroke:#006cff;}.cls-31{fill:#ffb998;}.cls-32{fill:#ffac89;}.cls-33{fill:#addef8;}.cls-34{fill:#0053f1;}.cls-35{stroke:#0045d6;}.cls-36{fill:#ff9487;}.cls-37{stroke:#addef8;}.cls-38{fill:#f99b78;}.cls-39{fill:#e08a6a;}.cls-40{stroke:#d21f9e;}.cls-41{fill:#ff5b80;}.cls-42{fill:#132a99;}.cls-43{stroke:#891968;}</style><clipPath id="clip-path" transform="translate(-78.83 -6.37)"><rect class="cls-1" y="6.37" width="1234" height="810.43"/></clipPath><clipPath id="clip-path-2" transform="translate(-78.83 -6.37)"><rect class="cls-1" x="41.44" width="1200" height="800"/></clipPath><clipPath id="clip-path-3" transform="translate(-78.83 -6.37)"><circle class="cls-1" cx="626.17" cy="559.67" r="454.5"/></clipPath></defs><title>recurso</title><g id="Capa_2" data-name="Capa 2"><g id="b759170a-51c3-4e2f-999d-77dec9fd6d11"><g class="cls-2"><rect class="cls-1" width="1140.56" height="787.26"/><g class="cls-3"><g class="cls-4"><path class="cls-5" d="M171.67,559.67c0-251,203.49-454.5,454.5-454.5s454.49,203.49,454.49,454.5-203.48,454.5-454.49,454.5S171.67,810.69,171.67,559.67Z" transform="translate(-78.83 -6.37)"/><path class="cls-6" d="M503.58,125V986.42" transform="translate(-78.83 -6.37)"/><path class="cls-6" d="M750.12,125V986.42" transform="translate(-78.83 -6.37)"/><path class="cls-6" d="M172.83,520.6H1080" transform="translate(-78.83 -6.37)"/><g class="cls-7"><path class="cls-8" d="M793.27,1193s-12.65-93.23-48.9-141.83S689.08,990.91,708,960.5s16-37.74,4.66-65.31-36.1-48.44-5-77.1,7.82-23-2.06-48.48,5.16-29.15,4.59-44.42,19.28-11.78,23.92,17.86,5.88,13.85,39.78,47.76,21,68.86,21.73,100.14,53.08,68.06,44.53,81.33c-26,40.39,22.93,69.12,11.15,104.28S793.27,1193,793.27,1193Z" transform="translate(-78.83 -6.37)"/><path class="cls-9" d="M719.84,717.19c4.56,13.54,8.37,30.92-.17,38.19-14.46,12.32,21,33.37,26.05,59.09s-11.64,38.44,1.21,55.9,16.38,71,13.69,97.41,11.18,51.87,28.41,82.78S793.26,1193,793.26,1193s46.31-81.27,58.09-116.43-37.21-63.88-11.17-104.27c8.55-13.26-43.76-50.06-44.49-81.34s12.16-66.22-21.74-100.13-35.14-18.11-39.78-47.76C731.78,727.85,725.41,719.63,719.84,717.19Z" transform="translate(-78.83 -6.37)"/><path class="cls-10" d="M917.73,1014.17s-37.41-103.69-27.6-162.92,22.38-75.24-12.59-105S841.55,707.94,838,676s9.75-59-36.35-84.78-20.06-23.71-23.92-53.12S757,507.23,749.4,490.52s-25.36-9.44-14.07,23.63,1.61,16.1-13.74,58.94,16.11,78.62,32.13,112.79-16,83.37-.47,96.31c47.35,39.39,14.34,79.25,44.8,115.44S917.73,1014.17,917.73,1014.17Z" transform="translate(-78.83 -6.37)"/><path class="cls-11" d="M735.62,483.49C738.36,499,743.9,518.6,756.23,525c20.88,10.88-2.93,40,5.88,68.87s32.08,39.8,28.72,61.05,21.82,80.13,38.61,108.42,16.71,58.41,16.23,95.07,72.06,155.75,72.06,155.75S828.49,933.82,798,897.63s2.58-76-44.77-115.44c-15.55-12.94,16.45-62.14.43-96.31s-47.46-69.95-32.12-112.79,25-25.87,13.75-58.94C729.53,497.18,731.42,487.12,735.62,483.49Z" transform="translate(-78.83 -6.37)"/><path class="cls-12" d="M538.86,1067s9.05-93.65,43.41-143.61,52.92-62.33,32.85-92-17.42-37.1-7.17-65.09,34.21-49.79,2-77.23-8.7-22.73.19-48.52-6.28-28.94-6.3-44.21-19.72-11-23.22,18.77-5.34,14.07-37.91,49.25S524.38,734,524.85,765.28s-50.42,70.06-41.37,83c27.57,39.36-20.25,70-7.13,104.63S538.86,1067,538.86,1067Z" transform="translate(-78.83 -6.37)"/><path class="cls-11" d="M593.93,588.73c-4,13.7-7.17,31.22,1.64,38.15,14.92,11.76-19.74,34.15-23.76,60s13.12,38,.94,55.91-13.63,71.57-9.93,97.87S553.63,893,537.6,924.51,538.87,1067,538.87,1067s-49.4-79.43-62.53-114.11,34.73-65.27,7.15-104.62c-9.06-12.92,41.81-51.7,41.33-83s-14.7-65.71,17.87-100.9,34.42-19.45,37.92-49.25C582.41,599.84,588.45,591.38,593.93,588.73Z" transform="translate(-78.83 -6.37)"/><path class="cls-13" d="M339.63,1054S377,950.29,367.22,891.06s-22.38-75.24,12.59-105,36-38.28,39.57-70.27-9.75-59,36.35-84.78,20.06-23.71,23.92-53.12S500.35,547,508,530.33,533.31,520.88,522,554s-1.61,16.1,13.74,58.94-16.11,78.62-32.13,112.79,16,83.37.47,96.31c-47.35,39.39-14.34,79.25-44.8,115.44S339.63,1054,339.63,1054Z" transform="translate(-78.83 -6.37)"/><path class="cls-14" d="M521.74,523.3c-2.74,15.53-8.28,35.11-20.61,41.53-20.88,10.88,2.93,40-5.89,68.87s-32.08,39.8-28.72,61.05-21.82,80.13-38.61,108.42-16.71,58.41-16.23,95.07S339.62,1054,339.62,1054s89.26-80.35,119.71-116.55-2.57-76,44.77-115.44c15.55-12.94-16.45-62.14-.43-96.31s47.46-69.94,32.12-112.79S510.76,587,522,554C527.83,537,525.94,526.93,521.74,523.3Z" transform="translate(-78.83 -6.37)"/></g><path class="cls-11" d="M334.47,902.12s-44-27.94-110.61-65.15S112.94,725.13,118.18,662.22,106.1,594.52,96.31,540.33s8.26-58.52,51.17-5.56,53.1,23.75,80.27,63.38-16.56,57.68,14.49,77.6,47.6-15.69,71.38,66.33S334.47,902.12,334.47,902.12Z" transform="translate(-78.83 -6.37)"/><path class="cls-15" d="M102.11,497.35a7.18,7.18,0,0,0-4.25,2.47c18.62,39.7,65.87,97.52,71,141.44s3.13,72.68,39.73,100.08S334.49,902.12,334.49,902.12s2.91-78-20.87-160-40.33-46.41-71.37-66.33,12.65-38-14.52-77.63-37.33-10.38-80.24-63.35C126,508.31,110.76,496.11,102.11,497.35Z" transform="translate(-78.83 -6.37)"/><path class="cls-16" d="M948.35,870s41.54-24.88,104-57.5,107.78-104,107.82-167.12,15.91-66.7,28.76-120.07-3-58.91-45.43-9-49.36,20.09-76.67,57.78,10.49,58.64-18.82,76.4-41.47-18.86-68.93,61.32S948.35,870,948.35,870Z" transform="translate(-78.83 -6.37)"/><path class="cls-17" d="M1186.94,482a6.35,6.35,0,0,1,3.62,2.75c-19.67,38.33-66.34,92.8-74.2,136.25s-8.26,72.27-43.11,97.12S948.34,870,948.34,870s3.26-78,30.72-158.16,39.62-43.56,68.93-61.33-8.48-38.75,18.84-76.43,34.22-7.83,76.65-57.75C1164.69,491.36,1179.28,480.23,1186.94,482Z" transform="translate(-78.83 -6.37)"/><path class="cls-18" d="M358.52,902.12s-39-121.39-87.76-174.05-70.36-61.6-61-109.42,4.44-56.68-14.35-89.87-48.57-52.5-27-102.33.86-33.92-15.94-64.73-3.45-41.22-8.4-61.62,15.09-22.8,28.08,15.57,9.63,16.6,51.9,50.28,40,85.48,49.69,127.46,70.51,72.94,66.13,93.91c-13.33,63.84,41.9,85.15,40.74,136.83S358.52,902.12,358.52,902.12Z" transform="translate(-78.83 -6.37)"/><path class="cls-17" d="M151,285.86c8.27,16.65,16.93,38.76,10.84,51.63-10.31,21.81,29.78,37.54,42,70.48S203.78,464,221.13,483s36.16,90,41.2,126.65,25.67,66,51.1,101.63,45.08,190.82,45.08,190.82,21-126.3,22.14-178-54.09-73-40.76-136.81c4.38-21-56.38-52-66.1-93.93s-7.42-93.78-49.7-127.45-38.91-11.9-51.9-50.27C165.53,296,157.06,287.16,151,285.86Z" transform="translate(-78.83 -6.37)"/><path class="cls-11" d="M979.06,833.62s33-123.14,79.15-178.13,67.27-65,55.57-112.27-7.21-56.39,9.94-90.46,46-54.81,22-103.53-2.52-33.83,12.76-65.43,1.43-41.34,5.38-62-16.19-22-27.29,16.93-8.81,17.05-49.39,52.75-35.75,87.33-43.4,129.73-66.86,76.3-61.46,97c16.43,63.12-37.7,87.09-34,138.66S979.06,833.62,979.06,833.62Z" transform="translate(-78.83 -6.37)"/><path class="cls-12" d="M1156.22,208c-7.45,17-15,39.54-8.31,52.1,11.37,21.28-27.91,38.95-38.51,72.45s2.82,56-13.58,75.81-31.72,91.68-35,128.51-22.41,67.22-46.07,104-35.71,192.79-35.71,192.79S952,708.49,948.26,656.93s50.46-75.52,34-138.64c-5.4-20.73,53.78-54.65,61.43-97.05s2.83-94,43.41-129.73,38.29-13.79,49.39-52.75C1142.22,218.78,1150.24,209.55,1156.22,208Z" transform="translate(-78.83 -6.37)"/><path class="cls-13" d="M1220.41,597.4s-38.92-16.13-52.18,6.9c-9.29,16.13-15.25,23.54-21.17,28.28,0,0,14.85,4.82,34.61-15.7S1220.41,597.4,1220.41,597.4Z" transform="translate(-78.83 -6.37)"/><path class="cls-9" d="M185.91,623.69s-41.7-6-48.86,19.59c-5,17.93-9,26.58-13.52,32.64,0,0,15.58,1,29.65-23.77S185.91,623.69,185.91,623.69Z" transform="translate(-78.83 -6.37)"/><path class="cls-13" d="M1110.37,714.57s-40-76.72,7.76-128.31c33.44-36.14,40.15-60,38.79-95.25,0,0,19,51-22.5,115.52S1110.37,714.57,1110.37,714.57Z" transform="translate(-78.83 -6.37)"/><path class="cls-9" d="M100.11,704.76s-31.39-64.92,14.54-106.28c32.18-29,39.62-48.55,40.47-77.88,0,0,14,42.9-27,95.21S100.11,704.76,100.11,704.76Z" transform="translate(-78.83 -6.37)"/></g><path class="cls-18" d="M509.23,344.44s-46.7-48.22-22.89-105.54S498,164.45,464.18,141c0,0,2.95-8.4-21.14-8.14s-82.3,12.6-90.15,59S363.72,247.6,333.14,258s-45.74,15.89-34.64,45.86-6.43,21.58-22.46,29.7C251.54,346,262,358.08,269.54,374s7.85,11.2-15.7,37-29.77,60.71,24.36,75.56,149.93-21.11,149.93-21.11Z" transform="translate(-78.83 -6.37)"/><path class="cls-19" d="M464.18,141s-48.58-1.56-77.65,19.58c-27.29,19.85-23.06,33.57-18.36,71.64S349,262.16,323.79,276.67c-28.14,16.2,10.47,27.36-2.94,46.64s-45.12,21.07-33.74,45.36,25.73,28.82,5.24,45.21-50.68,27.37-33.4,49,38.84,24.69,38.84,24.69" transform="translate(-78.83 -6.37)"/><path class="cls-19" d="M473.46,149.3s-70.82,3.08-79.09,35.41,12.15,72.67-11.38,82.75-55.08,20.95-28.7,38.79,22,40.86-11.38,48.88-25.34,26.12-3.62,41.63-14.37,24.51-35.58,39,18,43.1,49.52,47.72" transform="translate(-78.83 -6.37)"/><path class="cls-19" d="M409.88,258.51s6.44,13.94-15.84,21.65-21.4,20,6.2,33.59c23.43,11.5,40.58,29.24,3,49s-42.79,16.48-7.68,45.89-9.84,29.86-23.63,44.18S400.72,469,405.73,472" transform="translate(-78.83 -6.37)"/><path class="cls-12" d="M616,328.86s-57.79-6.24-97.25-5.35-61.24-20.75-98.8-20.23-53.67,17-53.67,17l21,27.88s77.59,20.18,124.53,49.74,67.55,70.61,67.55,70.61Z" transform="translate(-78.83 -6.37)"/><path class="cls-16" d="M525.49,534.36s-70.35,16.06-74-51.56l54.06-8.67Z" transform="translate(-78.83 -6.37)"/><path class="cls-20" d="M714,216.34l-15.51,75.84-35.22,22.47-13-121.59Z" transform="translate(-78.83 -6.37)"/><path class="cls-21" d="M739.59,1208.24s1.94,38.12,12.87,50.65,31.66,35.46,21.3,39.31c-16.76,6.23-47.4-13.36-56.34-21.8s-9.24-52.35-11-61S739.59,1208.24,739.59,1208.24Z" transform="translate(-78.83 -6.37)"/><path class="cls-22" d="M739.61,1208.25a221.49,221.49,0,0,0,3.12,24.23,56.63,56.63,0,0,1-34.52,2.82c-.61-7.83-1.25-17-1.82-19.83C704.64,1206.88,739.61,1208.25,739.61,1208.25Z" transform="translate(-78.83 -6.37)"/><path class="cls-17" d="M709.64,1249.56c5.58,1.34,7.28,4.82,17.24,10.37,11.51,6.42,25.6-1,25.6-1,10.85,12.44,31.66,35.48,21.3,39.33-16.76,6.23-47.43-13.4-56.37-21.84C713.4,1272.6,710.87,1262.91,709.64,1249.56Z" transform="translate(-78.83 -6.37)"/><path class="cls-21" d="M595.26,1208.93s.58,38.17-9.5,51.39-29.25,37.47-18.66,40.63c17.14,5.11,46.42-16.46,54.78-25.47s5.77-52.85,6.95-61.54S595.26,1208.93,595.26,1208.93Z" transform="translate(-78.83 -6.37)"/><path class="cls-22" d="M595.24,1209a224.64,224.64,0,0,1-1.46,25.22c15.18,8.33,23.75,6.63,34.58-.31.09-7.85.12-17.08.51-19.91C630,1205.26,595.24,1209,595.24,1209Z" transform="translate(-78.83 -6.37)"/><path class="cls-17" d="M627.87,1248.18c-5.48,1.71-6.94,5.29-16.52,11.49-11.06,7.16-25.61.66-25.61.66-10,13.12-29.25,37.48-18.66,40.64,17.14,5.11,46.44-16.5,54.8-25.51C625.63,1271.42,627.52,1261.59,627.87,1248.18Z" transform="translate(-78.83 -6.37)"/><path class="cls-17" d="M760.6,685.76l-14.06,534.59s-21.29,21.41-46.17,2.88L666.21,702.44l-32.5,519.39s-25,19.43-43.43-3.48L577.7,680.44Z" transform="translate(-78.83 -6.37)"/><path class="cls-16" d="M760.6,685.76,577.7,680.44l0,2.1.11,5.16,1.57,66.44c14.5,4,31.86,6.32,52.67,8.57,7.66,40.78,16.53,91.83,21.82,135.62L666.1,704.18l4.19,60.44c25.79,0,56.85-1,88.44-7.67l1.57-61.31Z" transform="translate(-78.83 -6.37)"/><path class="cls-23" d="M598.08,1215.8l-15.6-542.43" transform="translate(-78.83 -6.37)"/><path class="cls-23" d="M741.46,1218.35s5.07-513.13,5.07-538.79" transform="translate(-78.83 -6.37)"/><path class="cls-21" d="M541.49,429.18c-.22-63.87,69.44-97.61,69.44-97.61,41.16-15.94,18-72.35,18-72.35l57,7.68s-16.36,39.37,18.18,59.61c26.41,15.47,81.31,18.31,86.37,81.22l-29.88,37L754,682.24S659.92,683.53,583.92,657l-1.65-196.51Z" transform="translate(-78.83 -6.37)"/><path class="cls-22" d="M629,259.23,686,267s-5.87,18.8-1.59,36.13c-9.71,9.57-30.59,24.27-52.82,9.15C641.43,289.75,629,259.23,629,259.23Z" transform="translate(-78.83 -6.37)"/><path class="cls-22" d="M704.2,326.53s-33.94,63.6-55.15,43.29c0,0-27.28-24.21-33-40.68l-14.55,22,16.94,69.29,38.26,19.3,63.24-33.87Z" transform="translate(-78.83 -6.37)"/><path class="cls-24" d="M654.69,125.14c36.14,1.67,48,29.32,48,29.32,39.4,11,33,76.34,28.47,113.27s-40.36,49.94-52.48,51.68-5.41-2.89-5.41-2.89c20.71-17.32,18.44-73,18.44-73s-2,4.45-5.15,10.77l-16.62-36.77s-38.27,26.38-34.09,52.16c3.2,19.73-1.55,40.7-7.23,45.93-27.95,10.79-47.91,1.15-52.54-2-6.36-4.36,5.23-4.46,7.77-18.17,3.3-17.75-1.45-51.71-6.54-105.61-3.37-35.61,32.7-55.7,32.7-55.7C627.89,126.9,642.65,124.58,654.69,125.14Z" transform="translate(-78.83 -6.37)"/><path class="cls-21" d="M681.07,173.8l6.65,52.14s11.5-7.41,15.21,3.66-5.63,17.83-11.23,15.88c0,0-.44,33.73-30.55,40.29s-50-34.49-51.53-51.44-10.67-37.52-10.67-37.52l19.86-29.74Z" transform="translate(-78.83 -6.37)"/><path class="cls-25" d="M630.46,237a8.86,8.86,0,1,0-7.17,10.12A8.77,8.77,0,0,0,630.46,237Z" transform="translate(-78.83 -6.37)"/><path class="cls-25" d="M681.7,229.31a8.86,8.86,0,1,0-7.17,10.12A8.77,8.77,0,0,0,681.7,229.31Z" transform="translate(-78.83 -6.37)"/><path class="cls-22" d="M701.32,234.19c.22-3.67-1.9-6.79-4.73-7s-5.29,2.68-5.5,6.35,1.9,6.79,4.73,7S701.11,237.87,701.32,234.19Z" transform="translate(-78.83 -6.37)"/><path class="cls-24" d="M688.17,224.33s.71,13-2,14.22c0,0-18.48-45.16-19.62-56.13,0,0-43.45,30-63.3,33.77L590,191.62l31.44-46.4L669,156.76l36.71,33Z" transform="translate(-78.83 -6.37)"/><path class="cls-26" d="M624.71,223.68a3,3,0,1,0-2.45,3.53A3,3,0,0,0,624.71,223.68Z" transform="translate(-78.83 -6.37)"/><path class="cls-26" d="M664.08,220.58a3,3,0,1,0-2.45,3.53A3,3,0,0,0,664.08,220.58Z" transform="translate(-78.83 -6.37)"/><path class="cls-26" d="M625.55,208.22s3.43,3.46-2.37,2.09-7.44.65-11,4.62c-2.9,3.19-4.75,1-3-2.72S618,200.43,625.55,208.22Z" transform="translate(-78.83 -6.37)"/><path class="cls-26" d="M650.47,211.34s-1.72,4.56,3,.93,7.05-2.46,12-.31c4,1.72,4.76-1,1.62-3.71S654.19,201.13,650.47,211.34Z" transform="translate(-78.83 -6.37)"/><path class="cls-27" d="M691,222.61l-12.55.34" transform="translate(-78.83 -6.37)"/><path class="cls-28" d="M684.77,227.14s-41.39,22.4-75.14,7.18c0,0,2.77,60.27,51.51,51.44,0,0,25.48-3.16,29.6-29.64C690.75,256.13,674.67,250.46,684.77,227.14Z" transform="translate(-78.83 -6.37)"/><path class="cls-29" d="M681.49,242.61l.13.18A15.5,15.5,0,0,0,687.35,254c-1.68,2.44-6.21,5.62-20.13,6.68-23,1.75-6.56-3.26-6.56-3.26C677.1,252.74,681.49,242.61,681.49,242.61Z" transform="translate(-78.83 -6.37)"/><path class="cls-29" d="M613.48,254.2c3.54,2.49,10.21,6.13,21,6.08,0,0,17.14.29-5.42,5a67.51,67.51,0,0,1-10.25,1.29A67.2,67.2,0,0,1,613.48,254.2Z" transform="translate(-78.83 -6.37)"/><path class="cls-30" d="M691,222.61l-11.72,7.15" transform="translate(-78.83 -6.37)"/><path class="cls-30" d="M691.69,245.48s1.23,5.69-2.05,15.67" transform="translate(-78.83 -6.37)"/><path class="cls-27" d="M678.44,223c0-6.74-7.54-9.63-17.29-9.63s-18,2.89-18,9.63,1.94,14.37,17.66,14.48C675.83,237.55,678.44,229.69,678.44,223Z" transform="translate(-78.83 -6.37)"/><path class="cls-27" d="M634.27,224.07c0-6.74-7.54-9.63-17.29-9.63s-18,2.89-18,9.63,1.94,14.37,17.66,14.48C631.66,238.66,634.27,230.81,634.27,224.07Z" transform="translate(-78.83 -6.37)"/><path class="cls-27" d="M643.24,225.62a13.91,13.91,0,0,0-9,.15" transform="translate(-78.83 -6.37)"/><path class="cls-21" d="M870.74,480.46s31.15,38.44,22.86,47S781.43,621.2,768.2,634.5s-22.36,23.62-35.18,6-15.83-14.07-6.28-21.61-2,0-2.29-4.31,4.63-9.23,11.62-10.54,15.42.85,25-7.49,58.34-79.54,62.7-85.83l-19.08-25.67Z" transform="translate(-78.83 -6.37)"/><path class="cls-12" d="M870.77,480.46s31.13,38.47,22.84,47c-6.18,6.36-65.24,55.15-100.51,85.18H793s-3.53-12-24.23-25.52c16.44-20.53,51.17-71,54.89-76.39l-17.37-23.37,1.61-2.52Z" transform="translate(-78.83 -6.37)"/><path class="cls-17" d="M704.2,326.53s-26.37,69.89-49.28,56.28S616,329.14,616,329.14s-60.44,17.76-76.78,75.17c-6.76,23.75,40.1,64.19,40.1,64.19l-1,102.48-.47,85.16-.13,24.29s7.72,3.08,27.91,6.76c32.08,5.85,83.68,11.17,155-1.44h0l1-210.7,35.17,57s20.39-49.49,74-51.56c0,0-64.5-88.75-94.23-115.21S704.2,326.53,704.2,326.53Z" transform="translate(-78.83 -6.37)"/><path class="cls-16" d="M760.6,605.3l-.27,62.19a50.34,50.34,0,0,1-6.22-1.61c-32.51-11.92-33.24-41.76-33.24-41.76Z" transform="translate(-78.83 -6.37)"/><path class="cls-18" d="M761,596.58C765.31,608,780,623.92,780,623.92l-.05.27c-4,3.48-10.08,8.67-11.69,10.29-13.22,13.31-22.4,23.65-35.22,6.06s-15.82-14.06-6.27-21.6-2,0-2.25-4.34,4.59-9.19,11.58-10.51S751.5,604.92,761,596.58Z" transform="translate(-78.83 -6.37)"/><path class="cls-13" d="M673.24,417.58H639V533.68h34.26Z" transform="translate(-78.83 -6.37)"/><path class="cls-13" d="M715.2,495.8l.68-34.25-116.08-2.3-.68,34.25Z" transform="translate(-78.83 -6.37)"/><path class="cls-12" d="M821.19,899.73" transform="translate(-78.83 -6.37)"/><path class="cls-31" d="M360.36,1211.27s-1.88,38.78-13,51.54-32.11,36.16-21.56,40c17.07,6.29,48.18-13.71,57.24-22.31s9.26-53.28,11-62S360.36,1211.27,360.36,1211.27Z" transform="translate(-78.83 -6.37)"/><path class="cls-12" d="M390.1,1257.74c-11.72.09-6.83,5.74-22.52,20.88-18.5,17.85-31.41-1.67-31.68-2.07-9.24,11.43-17.43,23.62-10.09,26.33,17.07,6.29,48.18-13.75,57.25-22.35C386.62,1277.16,388.65,1267.85,390.1,1257.74Z" transform="translate(-78.83 -6.37)"/><path class="cls-32" d="M360.34,1211.28a225.4,225.4,0,0,1-3.11,24.65,57.67,57.67,0,0,0,35.11,2.78c.6-8,1.23-17.33,1.8-20.17C395.9,1209.79,360.34,1211.28,360.34,1211.28Z" transform="translate(-78.83 -6.37)"/><path class="cls-31" d="M518.82,1211.27s1.88,38.78,13,51.54,32.11,36.16,21.56,40c-17.06,6.29-48.18-13.71-57.25-22.31s-9.26-53.28-11-62S518.82,1211.27,518.82,1211.27Z" transform="translate(-78.83 -6.37)"/><path class="cls-12" d="M489.08,1257.74c11.72.09,6.83,5.74,22.52,20.88,18.5,17.85,31.41-1.67,31.68-2.07,9.24,11.43,17.43,23.62,10.09,26.33-17.07,6.29-48.18-13.75-57.25-22.35C492.56,1277.16,490.53,1267.85,489.08,1257.74Z" transform="translate(-78.83 -6.37)"/><path class="cls-32" d="M518.84,1211.28a225.37,225.37,0,0,0,3.11,24.65,57.67,57.67,0,0,1-35.11,2.78c-.6-8-1.23-17.33-1.8-20.17C483.28,1209.79,518.84,1211.28,518.84,1211.28Z" transform="translate(-78.83 -6.37)"/><path class="cls-29" d="M526.05,628.3l-179.87-1.13-53.6,120.39L269.66,911s114.19-100.63,309-21.21Z" transform="translate(-78.83 -6.37)"/><path class="cls-33" d="M483.28,628l-153.86,36.8,5.45,211.1c52.73-18.82,135.79-30.12,243.76,13.9L526,628.29Z" transform="translate(-78.83 -6.37)"/><path class="cls-12" d="M348.95,638.27l4,393.5L355,1227s24,9.63,41,.9l51.82-517.47L482,1228.22s22.6,9.74,43.1-4.72l12.14-590.13Z" transform="translate(-78.83 -6.37)"/><path class="cls-34" d="M537.26,633.36l-188.31,4.91.54,52.76.44,42.7a375.16,375.16,0,0,0,93.45,20.61l4.42-43.94,2.94,44.6A289.14,289.14,0,0,0,508,753c7.59,23.75,16.25,50.09,25.24,76.82Z" transform="translate(-78.83 -6.37)"/><path class="cls-35" d="M360.33,1221.3l1.28-550.23" transform="translate(-78.83 -6.37)"/><path class="cls-35" d="M520.59,1222l6.9-556.89" transform="translate(-78.83 -6.37)"/><path class="cls-31" d="M566.64,407.79c.21-56.36-75.35-79.79-75.35-79.79C451.95,313.94,474,264.16,474,264.16l-54.53,6.78s16.81,43.33-19.74,53.8-75.38,15-80.21,70.47l28.57,32.68-2.37,240.82s115.18,11.15,181.72-12.84l-8.78-214.14Z" transform="translate(-78.83 -6.37)"/><path class="cls-32" d="M474.07,264.15,419.49,271s6.6,17,2.51,32.33c9.29,8.44,28.26,21,49.5,7.63C462.14,291.08,474.07,264.15,474.07,264.15Z" transform="translate(-78.83 -6.37)"/><path class="cls-31" d="M410.5,220.25l-.18,18s-12.86-5.33-14.55,6.41,8.86,16.82,14.11,13.86c0,0,6.55,33.68,37.87,34.78s43.82-43.58,42.24-60.82S493.87,193,493.87,193l-25.27-26.17Z" transform="translate(-78.83 -6.37)"/><path class="cls-36" d="M469.62,238.9a9,9,0,1,1,9,8.83A8.92,8.92,0,0,1,469.62,238.9Z" transform="translate(-78.83 -6.37)"/><path class="cls-36" d="M412.59,241.31a9,9,0,1,1,9,8.83A8.92,8.92,0,0,1,412.59,241.31Z" transform="translate(-78.83 -6.37)"/><path class="cls-12" d="M466.53,226.3a3.09,3.09,0,1,1,3.09,3.09A3.09,3.09,0,0,1,466.53,226.3Z" transform="translate(-78.83 -6.37)"/><path class="cls-12" d="M428.1,227a3.09,3.09,0,1,1,3.09,3.09A3.09,3.09,0,0,1,428.1,227Z" transform="translate(-78.83 -6.37)"/><path class="cls-18" d="M456.45,155.62s-59.85,53-56,65.56c0,0,61.71-1.28,86.05-22.43.24,3.87,2.34,24.26,3.51,33.73l7.22-42.13-7.64-7.49-.05.1c-3.32-8.45-8.15-20.28-10.48-21.87C475.69,158.82,456.45,155.62,456.45,155.62Z" transform="translate(-78.83 -6.37)"/><path class="cls-12" d="M464.36,207.65s-3.36,3.65,2.49,2,7.59.37,11.41,4.27c3.07,3.13,4.87.87,2.94-2.88S471.76,199.43,464.36,207.65Z" transform="translate(-78.83 -6.37)"/><path class="cls-12" d="M439.6,219.59s2.54,4.26-2.85,1.48-7.5-1.18-12,1.86c-3.64,2.44-4.94-.13-2.3-3.42S434,210,439.6,219.59Z" transform="translate(-78.83 -6.37)"/><path class="cls-28" d="M413.48,238.9S459,253.82,490,232.48c0,0,8.15,60.82-42.23,60.82,0,0-26.07,1.46-35-24.3C412.75,269,427.82,260.41,413.48,238.9Z" transform="translate(-78.83 -6.37)"/><path class="cls-29" d="M419.57,253.79l-.1.2a15.76,15.76,0,0,1-3.7,12.25c2.12,2.14,7.23,4.5,21.36,3,23.32-2.41,6-4.45,6-4.45C425.79,263.12,419.57,253.79,419.57,253.79Z" transform="translate(-78.83 -6.37)"/><path class="cls-29" d="M489.73,253.06c-3.09,3.14-9.11,8-19.9,9.89,0,0-17.1,3.4,6.33,4a68.78,68.78,0,0,0,10.5-.57A68.42,68.42,0,0,0,489.73,253.06Z" transform="translate(-78.83 -6.37)"/><path class="cls-30" d="M406.44,235.5l13,5" transform="translate(-78.83 -6.37)"/><path class="cls-30" d="M409.88,258.51s-.19,5.92,4.89,15.31" transform="translate(-78.83 -6.37)"/><path class="cls-32" d="M398.19,249c-.88-3.64.67-7.14,3.47-7.81s5.78,1.72,6.66,5.36-.67,7.14-3.47,7.81S399.07,252.59,398.19,249Z" transform="translate(-78.83 -6.37)"/><path class="cls-17" d="M464.18,141s43.17,32.91,22.28,57.74l3.77,36.48S525.54,170.89,464.18,141Z" transform="translate(-78.83 -6.37)"/><path class="cls-19" d="M405.6,230.79s-16.85-69.72,73.45-75.43" transform="translate(-78.83 -6.37)"/><path class="cls-19" d="M411.34,220.57s0-45.18,72-59.71" transform="translate(-78.83 -6.37)"/><path class="cls-31" d="M410.5,220.25l-.18,18s-12.86-5.33-14.55,6.41,8.86,16.82,14.11,13.86c0,0,6.55,33.68,37.87,34.78s43.82-43.58,42.24-60.82S493.87,193,493.87,193l-25.27-26.17Z" transform="translate(-78.83 -6.37)"/><path class="cls-36" d="M469.62,238.9a9,9,0,1,1,9,8.83A8.92,8.92,0,0,1,469.62,238.9Z" transform="translate(-78.83 -6.37)"/><path class="cls-36" d="M412.59,241.31a9,9,0,1,1,9,8.83A8.92,8.92,0,0,1,412.59,241.31Z" transform="translate(-78.83 -6.37)"/><path class="cls-12" d="M466.53,226.3a3.09,3.09,0,1,1,3.09,3.09A3.09,3.09,0,0,1,466.53,226.3Z" transform="translate(-78.83 -6.37)"/><path class="cls-12" d="M428.1,227a3.09,3.09,0,1,1,3.09,3.09A3.09,3.09,0,0,1,428.1,227Z" transform="translate(-78.83 -6.37)"/><path class="cls-18" d="M456.45,155.62s-59.85,53-56,65.56c0,0,61.71-1.28,86.05-22.43.24,3.87,2.34,24.26,3.51,33.73l7.22-42.13-7.64-7.49-.05.1c-3.32-8.45-8.15-20.28-10.48-21.87C475.69,158.82,456.45,155.62,456.45,155.62Z" transform="translate(-78.83 -6.37)"/><path class="cls-12" d="M464.36,207.65s-3.36,3.65,2.49,2,7.59.37,11.41,4.27c3.07,3.13,4.87.87,2.94-2.88S471.76,199.43,464.36,207.65Z" transform="translate(-78.83 -6.37)"/><path class="cls-12" d="M439.6,219.59s2.54,4.26-2.85,1.48-7.5-1.18-12,1.86c-3.64,2.44-4.94-.13-2.3-3.42S434,210,439.6,219.59Z" transform="translate(-78.83 -6.37)"/><path class="cls-28" d="M413.48,238.9S459,253.82,490,232.48c0,0,8.15,60.82-42.23,60.82,0,0-26.07,1.46-35-24.3C412.75,269,427.82,260.41,413.48,238.9Z" transform="translate(-78.83 -6.37)"/><path class="cls-29" d="M419.57,253.79l-.1.2a15.76,15.76,0,0,1-3.7,12.25c2.12,2.14,7.23,4.5,21.36,3,23.32-2.41,6-4.45,6-4.45C425.79,263.12,419.57,253.79,419.57,253.79Z" transform="translate(-78.83 -6.37)"/><path class="cls-29" d="M489.73,253.06c-3.09,3.14-9.11,8-19.9,9.89,0,0-17.1,3.4,6.33,4a68.78,68.78,0,0,0,10.5-.57A68.42,68.42,0,0,0,489.73,253.06Z" transform="translate(-78.83 -6.37)"/><path class="cls-30" d="M406.44,235.5l13,5" transform="translate(-78.83 -6.37)"/><path class="cls-30" d="M409.88,258.51s-.19,5.92,4.89,15.31" transform="translate(-78.83 -6.37)"/><path class="cls-32" d="M398.19,249c-.88-3.64.67-7.14,3.47-7.81s5.78,1.72,6.66,5.36-.67,7.14-3.47,7.81S399.07,252.59,398.19,249Z" transform="translate(-78.83 -6.37)"/><path class="cls-17" d="M464.18,141s43.17,32.91,22.28,57.74l3.77,36.48S525.54,170.89,464.18,141Z" transform="translate(-78.83 -6.37)"/><path class="cls-19" d="M405.6,230.79s-16.85-69.72,73.45-75.43" transform="translate(-78.83 -6.37)"/><path class="cls-19" d="M411.34,220.57s0-45.18,72-59.71" transform="translate(-78.83 -6.37)"/><path class="cls-18" d="M402.88,510.1" transform="translate(-78.83 -6.37)"/><path class="cls-32" d="M409.19,320.58s30,53.27,50.29,35.35c0,0,17.64-17.76,23.15-32.29l17.72,21.59-16.19,61.14-36.57,17-60.45-29.89Z" transform="translate(-78.83 -6.37)"/><path class="cls-12" d="M409.19,320.58a37,37,0,0,1-9.43,4.14c-36.55,10.48-75.37,15-80.2,70.5l28.57,32.66-2.34,240.82s115.16,20.36,181.7-3.62l-8.76-223.35,47.92-33.91C566.85,351.45,491.3,328,491.3,328a39.54,39.54,0,0,1-8.67-4.36l-.11.05s-8.43,27.76-26.5,45.25c-13.91,13.47-46.73-48.31-46.73-48.31Z" transform="translate(-78.83 -6.37)"/><path class="cls-28" d="M347.2,522.72s.33,84.89-41.86,154.94S256,853.51,264.2,901.38c5.32,31.07,9.7-9,14.83-40.31,11.94-73,33.23-110.47,89.49-214.4C400.85,587,411.47,484,411.47,484Z" transform="translate(-78.83 -6.37)"/><path class="cls-28" d="M476.23,495.27s1.08,113.2,38.38,219.44,53.17,122.48,61.66,167.2c3.57,18.79,13.93,17.49,2.85-35.46s-46.31-278.67-38.5-323.35Z" transform="translate(-78.83 -6.37)"/><path class="cls-29" d="M408.59,505.35l-61.44,18.43c0,1.64-.37,27-7.41,61.45,20.12-.94,42.41-8.41,56.21-14.88C402.28,544.83,406.21,521.58,408.59,505.35Z" transform="translate(-78.83 -6.37)"/><path class="cls-29" d="M476.85,510.15c.49,11.12,1.47,26.78,4,49.72,13.7,7.93,36.71,19.25,60.74,22-2.14-26.6-2.85-48-1-58.72l-16.57-7.2Z" transform="translate(-78.83 -6.37)"/><path class="cls-33" d="M374.14,388.1a11.54,11.54,0,1,1,11.54,11.54A11.54,11.54,0,0,1,374.14,388.1Z" transform="translate(-78.83 -6.37)"/><path class="cls-12" d="M379.41,388.1a6.27,6.27,0,1,1,6.27,6.27A6.27,6.27,0,0,1,379.41,388.1Z" transform="translate(-78.83 -6.37)"/><path class="cls-37" d="M373.6,439.42" transform="translate(-78.83 -6.37)"/><path class="cls-37" d="M387.13,526.37a177.66,177.66,0,0,1-5.83,60.11" transform="translate(-78.83 -6.37)"/><path class="cls-37" d="M494.63,523.55s-6.55,42.19-2.59,66.2" transform="translate(-78.83 -6.37)"/><path class="cls-17" d="M493.69,321c-.18,12.27-1,35.71-4,64.75,7.76,3.86,15.29,7.87,22.09,12.16,46.95,29.56,67.54,70.63,67.54,70.63l36.58-139.35-5.16-.78c-7.85-.82-55.6-5.7-92-4.87A104.84,104.84,0,0,1,493.69,321Z" transform="translate(-78.83 -6.37)"/><path class="cls-21" d="M366.28,320.27s12-11.36,29-14c0,0,13.25,6.19,10.8,14.29,0,0-10.7,6.16-14.73,14.5l-20.87,7.75Z" transform="translate(-78.83 -6.37)"/><path class="cls-33" d="M582.65,395.64a11.54,11.54,0,1,1,11.54,11.54A11.54,11.54,0,0,1,582.65,395.64Z" transform="translate(-78.83 -6.37)"/><path class="cls-12" d="M587.92,395.64a6.27,6.27,0,1,1,6.27,6.27A6.27,6.27,0,0,1,587.92,395.64Z" transform="translate(-78.83 -6.37)"/><path class="cls-35" d="M594.19,395.64s-1.7-63.58,22.42-67.52" transform="translate(-78.83 -6.37)"/><path class="cls-27" d="M715.2,373.14s-17,0-19.29,27.71c-2.3,27.58-7.35,42.58,17.7,42.58" transform="translate(-78.83 -6.37)"/><path class="cls-27" d="M716.56,373.1s17,0,19.28,27.71c2.3,27.58,7.35,42.58-17.7,42.58" transform="translate(-78.83 -6.37)"/><path class="cls-35" d="M716.23,374.42s.28-47.44-11.87-48.59" transform="translate(-78.83 -6.37)"/><path class="cls-12" d="M712.47,440.82h3v5.12h-3Z" transform="translate(-78.83 -6.37)"/><path class="cls-12" d="M716.23,440.82h3v5.12h-3Z" transform="translate(-78.83 -6.37)"/><path class="cls-16" d="M579.3,471.6l-15.52-18.36s-30.13-38.89-.21-21.4,37.55,25.94,14.84,129.51h0Z" transform="translate(-78.83 -6.37)"/><path class="cls-28" d="M482.84,323.63c-6.39,80.33-4.36,142.46-4.36,142.46-3.88-.37-12.31-.16-20,.05-.86,0-1.39,0-2.24,0-8.41.26-15.7.6-15.7.6L433,504.15c2.13,1.09,3.67,1.79,5.72,2.84,38.61,19.63,65.74,31.56,84.23,37.45,32.46,10.35,40,3.28,43.89-8.29,2.26-6.7.46-128.35.46-128.35,0-62.59-75.81-79.81-75.81-79.81A39.56,39.56,0,0,1,482.84,323.63Z" transform="translate(-78.83 -6.37)"/><path class="cls-29" d="M524.88,473s25.73,14.06,23.76,5.45-34-25.46-37.53-24.66l-2.52,7.37Z" transform="translate(-78.83 -6.37)"/><path class="cls-29" d="M513.27,456.57S523,408.14,527.4,410s14.43,66.15,14.43,66.15L521,471.7Z" transform="translate(-78.83 -6.37)"/><path class="cls-37" d="M505.74,348.77s23.52,41.09,17.55,49.69c-3.67,5.28-34.58,6.91-30.69,15.25s31.66,13.4,13.67,29.43c0,0-16.64,15.53-13.35,37.43" transform="translate(-78.83 -6.37)"/><path class="cls-12" d="M500.73,412.62h23.53V418H500.73Z" transform="translate(-78.83 -6.37)"/><path class="cls-29" d="M499.79,451.21l-21.32,10.74c0,.31,0,4.14,0,4.14-1.62-.15-5.53,0-8.34,0l-32.82,16.52L433,504.15c2.13,1.09,3.67,1.79,5.72,2.84,12,6.12,21.08,10.21,31,14.88,17.28-16.34,40.19-40.3,39.53-54.3Z" transform="translate(-78.83 -6.37)"/><path class="cls-31" d="M460.87,453.55s32.4-6.65,42.25-4.55,20.23,20.54,21.76,23.95c0,0-28.67-11.49-34.94-7.41s-33.27,27.28-33.27,27.28l-13.36-22.12Z" transform="translate(-78.83 -6.37)"/><path class="cls-18" d="M492.28,448.81c-4.09.3-8.66.9-13,1.53,0,0,5.55,4.67,8.23,17.17.57-.41,2-1.7,2.45-2,6.27-4.09,34.95,7.41,34.95,7.41-1.54-3.41-11.9-21.83-21.75-23.93A43.24,43.24,0,0,0,492.28,448.81Z" transform="translate(-78.83 -6.37)"/><path class="cls-28" d="M408.31,320.58a37,37,0,0,1-9.43,4.14c-36.55,10.48-75.36,15-80.2,70.5,0,0-21.43,151.11,6.49,155.38,5.43.83,12.77,0,20.88-1.69,33.6-7,85.43-33.17,119.35-63,0,0-14.8-17.82-4.53-32.39l-53,11.29S419.51,342.3,408.31,320.58Z" transform="translate(-78.83 -6.37)"/><path class="cls-29" d="M365.24,474.6s-39.9,10.83-35.66,3.33,22.66-38.43,29.12-33.12S365.24,474.6,365.24,474.6Z" transform="translate(-78.83 -6.37)"/><path class="cls-29" d="M360.81,433.18s-.5-28.61,3.17-24.6,13.9,19.19,13.9,19.19-6,5.34-6.15,13.23Z" transform="translate(-78.83 -6.37)"/><path class="cls-37" d="M374.68,351.76s-23.52,41.09-17.55,49.69c3.67,5.28,34.58,6.91,30.69,15.25S369.25,431.09,371.74,441" transform="translate(-78.83 -6.37)"/><path class="cls-31" d="M412.65,463.82s-11,1.28-20.27-11.7-16.2-16.58-17.21-15.22,5.9,8.4,5.31,10c0,0-11.87-16.35-26.16-18.86s-16.77.67-9.36,3,16.38,7.7,12.46,7.71-20.39-8.07-24.7-5.37c-3.92,2.46,14.91,6.23,21.44,11.82s-16.87-6-21.62-2.83,11.29,5.66,19,10.7-11.09-5-15.18-1,8.78,2.46,15.87,10.15,4.91,7.43,13,12.32Z" transform="translate(-78.83 -6.37)"/><path class="cls-18" d="M345.77,427.11c-6.38-.05-6.38,2.2-.82,4,7.41,2.37,16.4,7.68,12.48,7.69s-20.39-8.1-24.7-5.4c-3.92,2.46,14.9,6.24,21.43,11.83s-16.89-6-21.64-2.84,11.32,5.71,19,10.74-11.13-5-15.21-1,8.77,2.45,15.87,10.14,4.93,7.43,13,12.32l32.18-7.32a33.51,33.51,0,0,0,1.56-8.22,32.5,32.5,0,0,1-6.6-6.92c-9.24-13-16.22-16.57-17.23-15.21s5.87,8.39,5.29,10c0,0-11.82-16.36-26.12-18.87A54.23,54.23,0,0,0,345.77,427.11Z" transform="translate(-78.83 -6.37)"/><path class="cls-17" d="M366.28,320.27s-7.56,4.85-16.49,19.84-14.76,23.37-6.22,31.17,26.91,15.71,29,7.2,2.81-3.49,7.1-4.7,3.26-27.52,11.6-38.72C391.32,335.06,386.16,313.59,366.28,320.27Z" transform="translate(-78.83 -6.37)"/><path class="cls-33" d="M374.14,388.1a11.54,11.54,0,1,1,11.54,11.54A11.54,11.54,0,0,1,374.14,388.1Z" transform="translate(-78.83 -6.37)"/><path class="cls-12" d="M379.41,388.1a6.27,6.27,0,1,1,6.27,6.27A6.27,6.27,0,0,1,379.41,388.1Z" transform="translate(-78.83 -6.37)"/><path class="cls-35" d="M385.68,388.1s-1.7-63.58,22.42-67.52" transform="translate(-78.83 -6.37)"/><path class="cls-19" d="M493.18,370.23s-17,0-19.28,27.71c-2.3,27.58-7.35,42.58,17.7,42.58" transform="translate(-78.83 -6.37)"/><path class="cls-19" d="M494.54,370.19s17,0,19.28,27.71c2.3,27.58,7.35,42.58-17.7,42.58" transform="translate(-78.83 -6.37)"/><path class="cls-35" d="M494.21,371.51s.28-47.44-11.87-48.59" transform="translate(-78.83 -6.37)"/><path class="cls-12" d="M490.45,437.92h3V443h-3Z" transform="translate(-78.83 -6.37)"/><path class="cls-12" d="M494.21,437.92h3V443h-3Z" transform="translate(-78.83 -6.37)"/><path class="cls-29" d="M740.18,937.06s76.77-75.68,144.61-52.36,59,42.29,129.28,43.89c36.51.83,48.88,12.17,48.88,12.17l-23.73-215-59.6-147.59L843,582.4,771,691.89Z" transform="translate(-78.83 -6.37)"/><path class="cls-33" d="M979.62,578.22,843,582.41l-47.66,72.53L783.4,715.51s17.87,116.35,26.87,175.08c23.18-9.6,49.46-14.51,74.51-5.9,67.84,23.33,59,42.31,129.3,43.9,36.51.83,48.83,12.17,48.83,12.17l-23.69-215Z" transform="translate(-78.83 -6.37)"/><path class="cls-38" d="M856,1204.71s4.36,37.93-4.35,52.08-25.38,40.2-14.53,42.29c17.56,3.38,44.55-21,52-30.79s.49-53.16.8-61.92S856,1204.71,856,1204.71Z" transform="translate(-78.83 -6.37)"/><path class="cls-39" d="M856,1204.73a221.6,221.6,0,0,1,.92,24.41c7.46,1.76,19.7,3,34.51-2.9-.69-7.83-1.58-17-1.47-19.86C890.29,1197.61,856,1204.73,856,1204.73Z" transform="translate(-78.83 -6.37)"/><path class="cls-29" d="M892.39,1240.53c-5.28,2.25-6.38,6-15.3,13.08-10.3,8.22-25.42,3.19-25.42,3.19-8.65,14-25.38,40.21-14.53,42.3,17.56,3.38,44.57-21,52-30.82C892.47,1263.88,893.37,1253.91,892.39,1240.53Z" transform="translate(-78.83 -6.37)"/><path class="cls-38" d="M1000.83,1202.76s-.58,38.18,9.5,51.39,29.25,37.48,18.65,40.64c-17.14,5.1-46.42-16.47-54.78-25.47s-5.77-52.85-6.95-61.54S1000.83,1202.76,1000.83,1202.76Z" transform="translate(-78.83 -6.37)"/><path class="cls-39" d="M1000.86,1202.78a224.64,224.64,0,0,0,1.46,25.22c-15.18,8.34-23.75,6.63-34.58-.3-.09-7.86-.12-17.09-.51-19.91C966,1199.1,1000.86,1202.78,1000.86,1202.78Z" transform="translate(-78.83 -6.37)"/><path class="cls-29" d="M968.22,1242c5.48,1.71,6.94,5.29,16.52,11.49,11.07,7.16,25.61.65,25.61.65,10,13.12,29.25,37.49,18.66,40.65-17.14,5.1-46.44-16.5-54.8-25.51C970.46,1265.26,968.57,1255.42,968.22,1242Z" transform="translate(-78.83 -6.37)"/><path class="cls-13" d="M998.48,652.34l6.53,559.28s-20.4,20.49-41.19,2.36L899.93,678l-6.27,538.36s-28.07,14.44-42.76-1l-48.11-560Z" transform="translate(-78.83 -6.37)"/><path class="cls-14" d="M998.5,652.33l-195.72,3L811,751a368,368,0,0,0,56.13,7c10.26,40.28,22.35,90.75,30.29,134.18L899.91,678l9.49,79.71a459.24,459.24,0,0,0,90.17-14.1Z" transform="translate(-78.83 -6.37)"/><path class="cls-40" d="M856.52,1214.47l-44-508.12" transform="translate(-78.83 -6.37)"/><path class="cls-40" d="M1001.53,1209.06,985,706.21" transform="translate(-78.83 -6.37)"/><path class="cls-28" d="M970.75,652s55.32,74.63,87,268.06c10.62,64.81,16.56-29.48,16.74-56.75.85-129.21-48.58-287.66-52.65-298.24" transform="translate(-78.83 -6.37)"/><path class="cls-28" d="M771.4,578.12s-41.53,243.51-38.7,329,15.87-13.09,25.59-47.68c25.31-90.09,48.3-159.71,66.21-191.89" transform="translate(-78.83 -6.37)"/><path class="cls-29" d="M1031.73,597.36l-53.66,66.42c5.25,8.75,12.33,22.14,22,44.65,24.2-4.37,40.62-21.61,50.5-36C1043.86,642.24,1037.12,616.36,1031.73,597.36Z" transform="translate(-78.83 -6.37)"/><path class="cls-29" d="M799,624.65l-36.29,8.58-.11.16c-1.54,9.86-3.39,22.28-5.15,33.93,18.83,23.09,34.95,40,45.46,50.61,6.61-17.78,13-33.56,18.71-44.76L805,634.78Z" transform="translate(-78.83 -6.37)"/><path class="cls-38" d="M767.85,386c-.22-63.87,78.82-90.42,78.82-90.42,41.16-15.94,18-72.34,18-72.34l57,7.68s-16.36,39.37,18.18,59.61c26.41,15.47,81.31,18.31,86.37,81.22l-29.88,37L986.5,633.42s-85.21,31.71-154.82,4.53L818,424.43Z" transform="translate(-78.83 -6.37)"/><path class="cls-39" d="M864.69,223.19l57.09,7.72s-5.87,18.8-1.59,36.13c-9.71,9.57-30.6,24.27-52.82,9.15C877.16,253.71,864.69,223.19,864.69,223.19Z" transform="translate(-78.83 -6.37)"/><path class="cls-39" d="M939.94,290.49S906,354.1,884.79,333.78c0,0-27.28-24.21-33-40.68l-14.55,22,16.94,69.29,38.26,19.3,63.24-33.87Z" transform="translate(-78.83 -6.37)"/><path class="cls-13" d="M943.77,294.63c28.49,18.34,77.49,14.18,82.54,77.09l-29.88,37-1.12,247.68s-122.83,26.25-192.43-.92L785.6,424.92,767.85,386c-.22-63.87,78.82-90.45,78.82-90.45,3.51-1.36,2.45-.54,5.08-2.43h0S864,322.9,883.56,341.94c27.16,26.44,56.38-51.44,56.38-51.44S940.36,292.43,943.77,294.63Z" transform="translate(-78.83 -6.37)"/><path class="cls-38" d="M923.77,155.16c6.62.81,2.4,49.4,2.4,49.4s13.59-5.64,15.38,6.78-9.37,17.78-14.92,14.65c0,0-6.93,35.6-40,36.77S840.29,216.69,842,198.47s-4.11-41.73-4.11-41.73l26.71-27.66S917.15,154.35,923.77,155.16Z" transform="translate(-78.83 -6.37)"/><path class="cls-41" d="M863.49,205.27A9.53,9.53,0,1,0,854,214.6,9.43,9.43,0,0,0,863.49,205.27Z" transform="translate(-78.83 -6.37)"/><path class="cls-41" d="M921.17,204.55a9.52,9.52,0,1,0-9.52,9.33A9.43,9.43,0,0,0,921.17,204.55Z" transform="translate(-78.83 -6.37)"/><path class="cls-42" d="M865.72,192a3.26,3.26,0,1,0-3.26,3.26A3.26,3.26,0,0,0,865.72,192Z" transform="translate(-78.83 -6.37)"/><path class="cls-42" d="M906.34,192a3.26,3.26,0,1,0-3.26,3.26A3.26,3.26,0,0,0,906.34,192Z" transform="translate(-78.83 -6.37)"/><path class="cls-39" d="M939,215.9c.93-3.85-.71-7.54-3.67-8.26s-6.11,1.82-7,5.67.71,7.54,3.67,8.26S938.06,219.74,939,215.9Z" transform="translate(-78.83 -6.37)"/><path class="cls-42" d="M918,157s-33.11,30.32-75.6,13.36-13.83-26.84-13.83-26.84c15.83-7.17,25-28.42,45.54-32.8s38.1,5.38,44.88,17.55c0,0,24.73-2.59,24.73,22.94s-13.5,50.68-13.5,50.68-5.31,11.43-5,2.54C925.63,191.9,929.67,188,918,157Z" transform="translate(-78.83 -6.37)"/><path class="cls-28" d="M922.83,205.27S874.75,221,842,198.48c0,0-8.62,64.29,44.64,64.28,0,0,27.56,1.54,37-25.68C923.6,237.08,907.67,228,922.83,205.27Z" transform="translate(-78.83 -6.37)"/><path class="cls-29" d="M916.4,221l.11.21a16.66,16.66,0,0,0,3.9,12.95c-2.25,2.26-7.64,4.76-22.58,3.21-24.64-2.55-6.31-4.71-6.31-4.71C909.82,230.87,916.4,221,916.4,221Z" transform="translate(-78.83 -6.37)"/><path class="cls-29" d="M842.23,220.23c3.26,3.32,9.63,8.44,21,10.45,0,0,18.08,3.59-6.69,4.23a72.64,72.64,0,0,1-11.09-.6A72.2,72.2,0,0,1,842.23,220.23Z" transform="translate(-78.83 -6.37)"/><path class="cls-30" d="M930.27,201.67,916.5,207" transform="translate(-78.83 -6.37)"/><path class="cls-30" d="M926.64,226s.2,6.26-5.17,16.18" transform="translate(-78.83 -6.37)"/><path class="cls-42" d="M868.58,183.28s2.9,4.37-2.94,1.7-8-.87-12.62,2.56c-3.72,2.76-5.23.11-2.6-3.5S862.21,173.48,868.58,183.28Z" transform="translate(-78.83 -6.37)"/><path class="cls-42" d="M894.19,183.65s-2.69,4.5,3,1.56,7.93-1.25,12.72,2c3.85,2.58,5.22-.14,2.43-3.62S900.08,173.57,894.19,183.65Z" transform="translate(-78.83 -6.37)"/><path class="cls-38" d="M810.71,685.62l7.72,8.18s19.37-9.77,28.74-22.2l-8-14-24.11-2.49Z" transform="translate(-78.83 -6.37)"/><path class="cls-38" d="M984.08,679.67l-7.33,8.91s-19.64-12.05-29-24.48l5.19-9.79,24.69-3.14Z" transform="translate(-78.83 -6.37)"/><path class="cls-43" d="M813.81,696.23s24.06-10.51,36.86-29.19" transform="translate(-78.83 -6.37)"/><path class="cls-43" d="M987.18,694s-27.16-12-40-30.68" transform="translate(-78.83 -6.37)"/><path class="cls-28" d="M940,290.48s-5.58,110-9.6,201.56S961,639.84,961,639.84l-8.1,14.47s24.61,6.4,31.15,25.36c8.09-8.61,18.37-19.69,30.07-32.16,22.42-23.9,52.41-64.45,61.81-83.79,16.45-33.84-20.94-120-37-189.07s-60-73-74.89-76.07S940,290.48,940,290.48Zm64.33,171.33c0-4.49,20,60.68,19,65.19s-7,13.13-7,13.13Z" transform="translate(-78.83 -6.37)"/><path class="cls-28" d="M851.72,293.1s-9.19,5-24.07,8.09-58.78,6.95-74.89,76.07-53.5,155.23-37,189.07c9.4,19.34,39.39,59.83,61.81,83.73,12.92,13.78,26,27.94,33.18,35.54.11-.3,6.67-16.94,28.47-28l-8.52-15.23s34.67-56.2,30.66-147.74S851.72,293.1,851.72,293.1ZM777,495.36l-1.61,47.33s-6-8.63-7-13.13S777.09,490.87,777,495.36Z" transform="translate(-78.83 -6.37)"/><path class="cls-13" d="M963.12,389.18h28v5.27h-28Z" transform="translate(-78.83 -6.37)"/><path class="cls-29" d="M777,495.36l10.73-41.44s6.76-16,9.31,16.95,23.13,110.22,47.74,139.86l-10,39.09s-52.34-94-59.37-107.13Z" transform="translate(-78.83 -6.37)"/><path class="cls-37" d="M829.85,310.95s-41.16,52.6-20.61,68c28,21,19.08,22.83,10.8,31.73s-14.4,11.45,16.68,78.85-6.78,121.09-6.78,121.09" transform="translate(-78.83 -6.37)"/><path class="cls-29" d="M961,639.84s-9.51-17.6-13.9-30.92c0,0,26-36.76,38.13-66.39,9.23-22.62,12.85-87.75,13.16-91.33,1.23-13.87,5.87,10.61,5.87,10.61l12,78.32Z" transform="translate(-78.83 -6.37)"/><path class="cls-37" d="M950.65,302.51s43.9,50.33,24.2,66.86c-26.8,22.48-17.83,23.81-9.09,32.26s15,10.67-12.47,79.62S966.5,601.81,966.5,601.81" transform="translate(-78.83 -6.37)"/><path class="cls-33" d="M831.87,360.63a11.35,11.35,0,1,1,13,9.47A11.35,11.35,0,0,1,831.87,360.63Z" transform="translate(-78.83 -6.37)"/><path class="cls-12" d="M837,359.83a6.16,6.16,0,1,1,7,5.14A6.16,6.16,0,0,1,837,359.83Z" transform="translate(-78.83 -6.37)"/><path class="cls-27" d="M843.08,358.88s-11.26-61.51,11.58-69" transform="translate(-78.83 -6.37)"/><path class="cls-19" d="M951,335.93s-16.69,0-19,27.25C929.77,390.29,924.8,405,949.43,405" transform="translate(-78.83 -6.37)"/><path class="cls-19" d="M952.33,335.89s16.69,0,19,27.25c2.26,27.12,7.23,41.87-17.41,41.87" transform="translate(-78.83 -6.37)"/><path class="cls-27" d="M952,337.19s.27-46.65-11.67-47.77" transform="translate(-78.83 -6.37)"/><path class="cls-12" d="M941.78,400h3v5h-3Z" transform="translate(-78.83 -6.37)"/><path class="cls-12" d="M945.48,400h3v5h-3Z" transform="translate(-78.83 -6.37)"/></g></g></g></g></svg>